<?xml version='1.0' encoding='ASCII' standalone='yes'?>
<svg xmlns="http://www.w3.org/2000/svg" xmlns:xlink="http://www.w3.org/1999/xlink" version="1.1" viewBox="0 0 100 100">
  <g>
    <g>
      <path d="M50,100c27.6,0,50-22.4,50-50s-22.4-50-50-50s-50,22.4-50,50s22.4,50,50,50ZM50,96c-25.4,0-46-20.6-46-46s20.6-46,46-46s46,20.6,46,46s-20.6,46-46,46Z" fill="#000000"/>
    </g>
    <g>
      <g>
        <path d="M55.685 11.001v64.108c0 7.671 3.226 11.504 9.687 11.504h1.684v4.388h-34.111v-4.388h2.141c6.247 0 9.369-3.833 9.369-11.504v-42.054c0-7.758-2.697-11.643-8.081-11.643h-3.429v-4.247h1.237c6.66 0 12.691-2.057 18.08-6.165l3.423.001z" fill="#000000" transform="translate(50, 50) scale(0.9) translate(-50, -50)"/>
      </g>
    </g>
  </g>
</svg>
