<?xml version='1.0' encoding='ASCII' standalone='yes'?>
<svg xmlns="http://www.w3.org/2000/svg" xmlns:xlink="http://www.w3.org/1999/xlink" version="1.1" viewBox="0 0 100 100">
  <g>
    <g>
      <path d="M14.6,85.4c19.6,19.5,51.2,19.5,70.8,0c19.5-19.6,19.5-51.2,0-70.8c-19.6-19.5-51.2-19.5-70.8,0c-19.5,19.6-19.5,51.2,0,70.8ZM81.074,16.126l-64.948,64.948c-16.614-17.992-16.156-46.142,1.374-63.574c17.432-17.53,45.582-17.988,63.574-1.374ZM18.926,83.874l64.948-64.948c16.614,17.992,16.156,46.142-1.374,63.574c-17.432,17.53-45.582,17.988-63.574,1.374Z"/>
    </g>
    <g transform="translate(32.32, 32.32) scale(0.9) translate(-32.32, -32.32)">
      <path d="M23.5,47h10.9c3.4,0,4.6-0.8,6.4-5h3.4l-3.3,11h-24.9v-2.9c1.5-1.8,2.7-3.1,5.1-5.5l6.7-6.7c0.5-0.5,0.9-1.1,1.4-1.6s1-1,1.5-1.7c2.2-2.7,4.6-5.4,4.6-9.1c0-4-2.9-7-6.1-7c-3.9,0-7.2,2.8-9.9,8.9l-3.2-1.3c3-8.7,8.1-13.3,14.5-13.3c6.3,0,11.7,5.1,11.7,11.5c0,7.2-6.7,11.9-11.6,15.9c-3.1,2.4-5.7,5.2-7.2,6.8Z"/>
    </g>
    <g transform="translate(67.68, 67.68) scale(0.9) translate(-67.68, -67.68)">
      <path d="M69.6,48.6v-2.4c0.1-0.6,0.4-1.6,1-4.4c-9.9,8.2-19.2,21.4-19.2,31.2c0,7.9,4.5,16.2,14.9,16.2c8.1,0,14.8-6.3,14.8-14.8c-0.1-9.9-11.5-15.3-11.5-25.8ZM75,76.9c-1.6,0-2.6-1.1-2.6-2.5c0-0.6,2.5-6.7,1.7-9c2.2,1.2,3.8,5.8,3.8,7.9c-0.1,1.3-0.6,3.6-2.9,3.6Z" fill="#0172BB"/>
    </g>
  </g>
</svg>
