<?xml version='1.0' encoding='ASCII' standalone='yes'?>
<svg xmlns="http://www.w3.org/2000/svg" xmlns:xlink="http://www.w3.org/1999/xlink" version="1.1" viewBox="0 0 100 100">
  <g>
    <g>
      <path d="M50,100c27.6,0,50-22.4,50-50s-22.4-50-50-50s-50,22.4-50,50s22.4,50,50,50ZM50,96c-25.4,0-46-20.6-46-46s20.6-46,46-46s46,20.6,46,46s-20.6,46-46,46Z" fill="#000000"/>
    </g>
    <g>
      <g>
        <path d="M64.27 68.359v6.723c0 7.684 2.695 11.525 8.094 11.525h2.33v4.394h-32.658v-4.394h2.607c5.303 0 7.961-3.798 7.961-11.392v-6.856h-32.795v-6.861l34.578-50.497h9.883v51.592h.82c3.383 0 5.852-2.608 7.408-7.816h4.115l-1.92 13.583-10.423-.001zm-11.666-5.766v-41.458l-27.893 41.458h27.893z" fill="#000000" transform="translate(50, 50) scale(0.9) translate(-50, -50)"/>
      </g>
    </g>
  </g>
</svg>
