<?xml version='1.0' encoding='ASCII' standalone='yes'?>
<svg xmlns="http://www.w3.org/2000/svg" xmlns:xlink="http://www.w3.org/1999/xlink" version="1.1" viewBox="0 0 100 100">
  <g>
    <g>
      <path d="M14.6,85.4c19.6,19.5,51.2,19.5,70.8,0c19.5-19.6,19.5-51.2,0-70.8c-19.6-19.5-51.2-19.5-70.8,0c-19.5,19.6-19.5,51.2,0,70.8ZM81.074,16.126l-64.948,64.948c-16.614-17.992-16.156-46.142,1.374-63.574c17.432-17.53,45.582-17.988,63.574-1.374ZM18.926,83.874l64.948-64.948c16.614,17.992,16.156,46.142-1.374,63.574c-17.432,17.53-45.582,17.988-63.574,1.374Z"/>
    </g>
    <g transform="translate(32.32, 32.32) scale(0.9) translate(-32.32, -32.32)">
      <path d="M41.9,39.8v5l0.4,4l-0.4,3.1c-1,0.2-1.5,0.2-2.9,0.5c-0.5-2-0.5-2-0.5-2.5l0.4-1.9c0-0.2-0.4-1.6-0.9-2.5h-0.9c-0.5,0.6,0.1,0.8,0,2.6c-1,0.6-1.9,1.4-2.9,2c-0.1,0-0.2-0.1-0.4-0.1v-4.3c-0.3-0.5-1-0.2-1.4-0.4l-0.8,6c-1.6,0.1-1.5,0-2.2,0c-0.4-1.6-0.9-4.1-1.5-6.1h-0.5c-0.4,0.8-0.7,2.3-0.7,2.4c0,0.3,0.3,1.6,0.3,1.9c0,0.2-0.3,1.6-0.3,2.5c-0.1,0-0.1,0.1-0.3,0.1c-2.9,0-3.3-1.4-3.1-3.6l0.5-7.6c0.1-0.9,1-0.5-0.8-2.9c-0.2-0.4-1.4-0.4-2-0.5l-4.3-0.9c-4.1-0.8-4.4-4.5-4.4-7c0-5,2.1-10.9,7.6-15.4c0.4,1.3,0.6,3.4,1.1,4.6c0.1,0.3,1.2,0.3,2.4,0.6c1.3,0.3,2.6,0.9,3.9,1.4c-0.8-0.9-3.5-2.2-4.6-3.5c-0.9-1.1-1-4-1-4.3c0-1,4.4-2.5,5.6-2.7c1.6-0.1,2.5-0.4,5.3-0.4c3.9,0,8.5,0.5,12.7,4.1c-1.4,1.5-3.7,3-5.3,3.9c1.9,0.1,6.6-2.5,6.8-2.5c0.7,0,3.4,3.9,3.9,4.8c1.3,2.3,2.2,4.9,2.7,7.8v2.6c0.1,9.6-11.5,4.5-11.5,9.2ZM21.8,24.1c-3.5,0-6.1,3.7-6.1,6.5c0,3.4,3.7,3.1,5.9,3.3h3.5c1.3,0.1,4.3,0.2,4.3-2.1c-0.1-3.5-3.8-7.7-7.6-7.7ZM35.2,35.8c-0.3-0.9-0.6-2.5-1.4-3.5l-0.6,7.4c0,0.3,0.3,0.9-0.4,0.9c-0.3,0-0.4-0.1-0.4-0.1l-0.5-5.8v-2.3c0-0.1-0.1-0.1-0.3-0.1c-1.4,1.4-2.2,4.8-2.2,7.1c0,0.9,0,2.6,0.5,3.4c1.6-0.5,0.6-0.6,2.7-0.6c1.7,0,2.6,0.6,2.9,0.6c0.8,0,0.6-3.1,0.6-3.4c0-1.7,0.1-1.7,0-1.9s-0.3-0.5-0.9-1.7ZM44.2,24.1c-3.5,0-7.3,4-7.3,7.6c0,1.3,0.8,2.1,2.1,2.1h7.3c1.7,0,4.1-0.5,4.1-3.1c0.1-3-2.6-6.6-6.2-6.6Z" fill="#281C1C"/>
    </g>
    <g transform="translate(67.68, 67.68) scale(0.9) translate(-67.68, -67.68)">
      <path d="M77.3,82c-0.9,0-5.8,0.5-5.8,1.9c0,0.5,1,1.1,1.2,1.1s4,0.2,6.5,0.2c-4.8,2.9-13.3,3-17.7,2.9c-6.1-0.1-9.9-6.5-9.9-11c0-5.9,4.6-10.6,10.4-10.6c2.3,0,3.6,0.9,4.7,0.9c4.2,0,7.9-3.6,8.8-3.6c-0.1,2.6-0.6,6.4-4.3,8.5c-1.7,1.1-2.5,2-2.5,3c0,1.5,2.4,1.9,2.9,1.9c2.3,0,4.7-3.7,4.5-5.5c-0.2-1.4-0.1-3,0.2-4.4c0-0.6,1.1-2.6,2.3-3c0,1-0.8,2.3-0.8,3.6c0,0.6,0.4,1.9,0.6,2.1c1.4-0.5,2.6-3.8,2.8-6.2c-3.3-0.1-7.8-4-7-7.9c0.1,0.2,1.8,3.3,2.6,3.3c1.6,0,0.6-6.9-3.4-6.9c-2.1,0-2.4,1.8-5.6,1.8c-1.1,0-3-0.8-3.8-1.1c0.4-0.4,6,0.4,6-1.8c0-1.8-6.9-2.6-8.1-2.8l-2.9-0.2c0.1-0.1,3.9-1,7.3-1c9.9,0,15.8,5,18.4,14c2-1.7-1.2-7.8-1.5-8.8c3.2,4.1,5,7.9,5,11.9c0,6.8-4.9,8.6-8.3,13.6c3-0.8,5.9-1.6,8.6-4.5c0,0.9-0.4,1.5-0.7,2.4c-1.9,4.9-5.6,6.2-10.5,6.2ZM58.6,53.5c-1.3,0.5-1.9,2.4-2.5,3.3c-0.4-0.4-0.4-1.6-0.5-2.5c-0.8,0-2.8,1.9-3.6,2.2c0.4-2.8,4-7,6.6-7c1.5,0,2.9,0.9,2.9,2.4c0,1.7-2.4,1.3-2.9,1.6ZM68.7,59.9c-2.7,0-2.5-2.9-5.5-4.3c1.2-1,3.1,1.4,4.1,1.4s1-1.7,2.6-1.7c1.4,0,2,1.2,2,2.1c0.1,1.7-2.3,2.5-3.2,2.5Z" fill="#FD2302"/>
    </g>
  </g>
</svg>
