<?xml version='1.0' encoding='ASCII' standalone='yes'?>
<svg xmlns="http://www.w3.org/2000/svg" xmlns:xlink="http://www.w3.org/1999/xlink" version="1.1" viewBox="0 0 100 100">
  <g>
    <g>
      <path d="M14.6,85.4c19.6,19.5,51.2,19.5,70.8,0c19.5-19.6,19.5-51.2,0-70.8c-19.6-19.5-51.2-19.5-70.8,0c-19.5,19.6-19.5,51.2,0,70.8ZM81.074,16.126l-64.948,64.948c-16.614-17.992-16.156-46.142,1.374-63.574c17.432-17.53,45.582-17.988,63.574-1.374ZM18.926,83.874l64.948-64.948c16.614,17.992,16.156,46.142-1.374,63.574c-17.432,17.53-45.582,17.988-63.574,1.374Z"/>
    </g>
    <g transform="translate(32.32, 32.32) scale(0.9) translate(-32.32, -32.32)">
      <path d="M41.2,45.8c-0.9,0-5.8,0.4-5.8,1.9c0,0.5,0.9,1.1,1.2,1.1c0.1,0,3.9,0.2,6.5,0.2c-4.9,2.9-13.3,2.9-17.7,2.9c-6.1-0.1-9.9-6.5-9.9-11c0-5.9,4.5-10.6,10.3-10.6c2.3,0,3.6,0.9,4.8,0.9c4.1,0,7.9-3.7,8.8-3.7c-0.2,2.7-0.7,6.5-4.3,8.6c-1.8,1-2.6,1.9-2.6,2.9c0,1.6,2.5,1.9,3,1.9c2.3,0,4.6-3.6,4.5-5.4c-0.2-1.4-0.1-3,0.1-4.4c0.1-0.6,1.2-2.6,2.3-3.1c0,1.1-0.8,2.4-0.8,3.7c0,0.6,0.5,1.9,0.7,2c1.4-0.5,2.5-3.8,2.8-6.1c-3.3-0.1-7.9-4-7.1-7.9c0.1,0.1,1.8,3.3,2.7,3.3c1.6,0,0.6-7-3.4-7c-2.1,0-2.5,1.9-5.6,1.9c-1.2,0-3-0.9-3.8-1.1c0.3-0.4,5.9,0.4,5.9-1.8c0-1.9-6.8-2.6-8.1-2.8l-2.9-0.2c0.1-0.2,3.9-1,7.3-1c9.9,0,15.9,5,18.5,14c1.9-1.7-1.2-7.8-1.5-8.9c3.1,4.2,4.9,8,4.9,12c0,6.8-4.9,8.5-8.2,13.6c2.9-0.8,5.8-1.6,8.6-4.6c0,0.9-0.5,1.6-0.7,2.4c-2,5-5.6,6.3-10.5,6.3ZM22.5,17.3c-1.3,0.5-2,2.4-2.6,3.3c-0.3-0.4-0.3-1.7-0.5-2.5c-0.8,0-2.8,1.8-3.5,2.2c0.4-2.8,4-7,6.6-7c1.5,0,2.8,0.8,2.8,2.3c0,1.8-2.3,1.4-2.8,1.7ZM32.5,23.7c-2.6,0-2.5-2.9-5.5-4.3c1.2-1,3.1,1.4,4.2,1.4c1,0,1-1.7,2.5-1.7s2,1.2,2,2.1c0.1,1.7-2.3,2.5-3.2,2.5Z" fill="#FD2302"/>
    </g>
    <g transform="translate(67.68, 67.68) scale(0.9) translate(-67.68, -67.68)">
      <path d="M85.5,73.9c-0.6,0-1.5-0.1-2-0.5c-0.3-0.4-0.5-0.9-0.8-1.1l-2.8-0.2c-1.9,0-6.5,1.8-6.6,2.1c-1,1-1.5,5.5-1.5,6.4c0,1.9,0.3,2.9,2.6,3.5l1.9,0.6l1.5-0.1c0.4,0,2.8,0.3,2.6,1.2c-0.7,0.3-1.7-0.2-2.9,0.4c0.3,0.1,1.1,0.6,1.6,0.8c0,0.7-1.6,0.7-2,0.7c-1.1,0-2.3-0.4-2.7-0.4h-0.6c-0.2,0.5-0.2,1-0.4,1.6c-2.1-0.1-2.9-2.3-4.1-2.3c-0.6,0-1.6,2.5-1.6,2.6c-1.2-0.5-1.6-2.4-1.9-3c-1,0.1-1.6,1.9-2.1,2.5h-0.3c-0.7-0.9-0.6-2.5-1-2.5c-0.9-0.3-1.9-0.6-3.4-0.6c-0.1,0-1.5,0.2-2.3,0.4l-1.8-0.1c0.4-0.4,3.5-2.5,5.1-2.5l1,0.1c0.5,0,2.1-0.7,2.4-1.1l0.1-2c0-3.4-1.1-6.1-6.8-7.1c-0.7,2.5-3.1,3.4-5.4,3.4c-2.2,0-4.2-3.4-4.2-4.9c0-1,0.2-2.3,1.9-3.6c-1.2-1.1-1.5-1.9-1.5-3c0-1.6,1-3.7,3.3-3.1c0-0.8,0-1.9,1.3-2.6c-0.4-0.4-0.7-1.6-0.7-2.3c0-2.5,2-4.5,4.6-4.5c1,0,2.4,0.3,3.5,1.5c1.3-4.4,4.1-5.9,7.4-5.9c3.9,0,5.8,3.4,6,3.4c0.1,0,0.8-0.6,2.8-0.6c2.9,0,5.4,2.2,6.3,5.6c0,0.1,0.8,0.1,1.3,0.4c0.9,0.5,1.3,1.5,1.3,2.3c0,0.3-0.3,0.6-0.5,1.1c2.6,1.4,3.8,3.3,3.8,5.9c0,1-0.1,1.6-0.8,2.9c1.1,0.7,1.5,1.7,1.5,2.6c-0.1,1.5-1.4,2.9-3.1,2.9ZM64.2,73.5v-0.7c0-1.8-2.1-3.6-4-3.6c-0.9,0-2.1,0.4-3,0.7c2.4-0.1,4.9,1.6,7,3.6ZM61.6,64.1c-0.8,0.2-2.5,0.5-2.5,1.5c1.2-0.1,2.9,0.6,4,0.6c-0.6-0.7-1.1-1.4-1.5-2.1ZM66.7,64.3v-2.6c-0.4-0.1-1-0.2-1.6-0.2v0.9c0,0.5,1.4,1.7,1.6,1.9ZM74.4,62.7l-2.7-1.2v5.1c1.8-1,2.8-2.3,2.7-3.9ZM77.7,69.6l-1.3-1.5c-2.1,1.6-2.8,1.5-4.5,3.5c2-1,3.8-1.5,5.8-2Z" fill="#027920"/>
    </g>
  </g>
</svg>
