<?xml version='1.0' encoding='ASCII' standalone='yes'?>
<svg xmlns="http://www.w3.org/2000/svg" xmlns:xlink="http://www.w3.org/1999/xlink" version="1.1" viewBox="0 0 100 100">
  <g>
    <g>
      <path d="M14.6,85.4c19.6,19.5,51.2,19.5,70.8,0c19.5-19.6,19.5-51.2,0-70.8c-19.6-19.5-51.2-19.5-70.8,0c-19.5,19.6-19.5,51.2,0,70.8ZM81.074,16.126l-64.948,64.948c-16.614-17.992-16.156-46.142,1.374-63.574c17.432-17.53,45.582-17.988,63.574-1.374ZM18.926,83.874l64.948-64.948c16.614,17.992,16.156,46.142-1.374,63.574c-17.432,17.53-45.582,17.988-63.574,1.374Z"/>
    </g>
    <g transform="translate(32.32, 32.32) scale(0.9) translate(-32.32, -32.32)">
      <path d="M41.2,45.8c-0.9,0-5.8,0.4-5.8,1.9c0,0.5,0.9,1.1,1.2,1.1c0.1,0,3.9,0.2,6.5,0.2c-4.9,2.9-13.3,2.9-17.7,2.9c-6.1-0.1-9.9-6.5-9.9-11c0-5.9,4.5-10.6,10.3-10.6c2.3,0,3.6,0.9,4.8,0.9c4.1,0,7.9-3.7,8.8-3.7c-0.2,2.7-0.7,6.5-4.3,8.6c-1.8,1-2.6,1.9-2.6,2.9c0,1.6,2.5,1.9,3,1.9c2.3,0,4.6-3.6,4.5-5.4c-0.2-1.4-0.1-3,0.1-4.4c0.1-0.6,1.2-2.6,2.3-3.1c0,1.1-0.8,2.4-0.8,3.7c0,0.6,0.5,1.9,0.7,2c1.4-0.5,2.5-3.8,2.8-6.1c-3.3-0.1-7.9-4-7.1-7.9c0.1,0.1,1.8,3.3,2.7,3.3c1.6,0,0.6-7-3.4-7c-2.1,0-2.5,1.9-5.6,1.9c-1.2,0-3-0.9-3.8-1.1c0.3-0.4,5.9,0.4,5.9-1.8c0-1.9-6.8-2.6-8.1-2.8l-2.9-0.2c0.1-0.2,3.9-1,7.3-1c9.9,0,15.9,5,18.5,14c1.9-1.7-1.2-7.8-1.5-8.9c3.1,4.2,4.9,8,4.9,12c0,6.8-4.9,8.5-8.2,13.6c2.9-0.8,5.8-1.6,8.6-4.6c0,0.9-0.5,1.6-0.7,2.4c-2,5-5.6,6.3-10.5,6.3ZM22.5,17.3c-1.3,0.5-2,2.4-2.6,3.3c-0.3-0.4-0.3-1.7-0.5-2.5c-0.8,0-2.8,1.8-3.5,2.2c0.4-2.8,4-7,6.6-7c1.5,0,2.8,0.8,2.8,2.3c0,1.8-2.3,1.4-2.8,1.7ZM32.5,23.7c-2.6,0-2.5-2.9-5.5-4.3c1.2-1,3.1,1.4,4.2,1.4c1,0,1-1.7,2.5-1.7s2,1.2,2,2.1c0.1,1.7-2.3,2.5-3.2,2.5Z" fill="#FD2302"/>
    </g>
    <g transform="translate(67.68, 67.68) scale(0.9) translate(-67.68, -67.68)">
      <path d="M85.6,71.9c-2.5-0.6-1,2.8-4.3,1.9c-0.6-0.1-1.6-0.6-2.5-1.1c-0.6,0.5-1.5,1.2-1.6,1.8c-0.4,1.3,1.5,3,1.9,3.1c2,0.5,3-0.9,2,3c-0.1,0.5-1.9,4.8-3.1,7.2c0-0.5,0.2-6.2-1.6-6.7c-0.6-0.1-1.5,0.4-2.3,0.1c-1.3-0.4-2-2.3-2.1-3.9c-1.6-0.1-2.9,0.4-3.3,2c-1,3.1,4,2.3-0.5,5.1c-2.3,1.5-5.6,2.4-7.9,3.4c1.2-0.9,3.6-3.5,4-4.9c0.5-2-3.1-2.5-0.4-6.8c-0.2-0.5-1-1.2-1.5-1.4c-5.4-1.4-0.4,5.3-6.5,3.5c-0.5,0-4.9-1.9-7.3-3c12.3,0.1,3-4.3,10.5-5.8c0-1.3-0.2-3-2-3.5c-0.9-0.1-1.7,1.4-3.2,1.7c-2.4,0.4-4-6.6-5.2-9.3c1.4,1.1,3,3.1,4.9,3.6c2.1,0.5,1.7-2.5,4.4-1.9c0.5,0.1,1.5,1,2,1.4c0.7-0.6,1.6-1.6,1.9-2.2c0.1-0.9-0.9-2.9-1.8-3c-1.4-0.5-3.3,0.9-2.3-3.1l3.5-7.5c-0.1,0.4-0.6,6.4,1.4,6.9c0.5,0.1,1.6-0.3,2.3-0.1c2.2,0.6,1.7,3.7,2.2,3.9c1.6,0.4,3.3-0.8,3.5-2.1c0.7-2.5-1.7-2.3-1.3-3.6c0.5-2,9.3-4.6,9.6-4.6c-8.9,6.9,0.7,4.9-3.5,11.7c0.6,0.7,1.5,1.6,2.1,1.9c2.8,0.6,2.1-3.1,2.5-3.5c0.5-0.9,2.5-0.2,3.4,0c0.5,0.1,4.9,1.9,7.4,3c-2.1,0-6.4-0.4-6.9,1c-0.1,0.9,0.1,2-0.1,3c-0.4,1.2-2.6,1.5-3.8,2.1c0.4,1.1,0,2.3,1.9,2.8c1.8,0.5,1-1.6,3.3-1.6c2.9-0.1,3.6,6.1,5.4,9.6c-1.1-1-3.3-3.6-5.1-4.1ZM72.1,57.6c-4.9-1.3-10.3,1.6-11.6,6.7c-1.1,4.3,1.4,10,6.8,11.5c4.6,1.1,10-1,11.5-6.7c1.2-4.5-1.5-10-6.7-11.5ZM67.4,74.9c-4.5-1.2-7.1-5.9-6-10.4c1.1-4.4,5.9-7,10.4-5.9c4.5,1.2,7.3,6,6,10.4c-1.2,4.9-6.1,7-10.4,5.9Z" fill="#ABA18A"/>
    </g>
  </g>
</svg>
