<?xml version='1.0' encoding='ASCII' standalone='yes'?>
<svg xmlns="http://www.w3.org/2000/svg" xmlns:xlink="http://www.w3.org/1999/xlink" version="1.1" viewBox="0 0 100 100">
  <g>
    <g>
      <path d="M50,100c27.6,0,50-22.4,50-50s-22.4-50-50-50s-50,22.4-50,50s22.4,50,50,50ZM50,96c-25.4,0-46-20.6-46-46s20.6-46,46-46s46,20.6,46,46s-20.6,46-46,46Z" fill="#000000"/>
    </g>
    <g>
      <g>
        <path d="M85.332 59.918h-36.004l13.185-9.383c-4.898-3.887-10.566-5.828-16.984-5.828-3.211 0-5.414.613-6.59 1.836-1.184 1.227-1.777 3.445-1.777 6.654 0 8.873 4.563 18.34 13.691 28.396l-10.391 10.521c-12.09-14.705-18.129-27.844-18.129-39.424 0-6.928 2.086-12.447 6.27-16.545 4.18-4.098 9.746-6.148 16.668-6.148 8.453 0 17.664 3.215 27.641 9.635l7.728-13.182 4.692 33.468z" fill="#000000" transform="translate(50, 50) scale(0.9) translate(-50, -50)"/>
      </g>
    </g>
  </g>
</svg>
