<?xml version='1.0' encoding='ASCII' standalone='yes'?>
<svg xmlns="http://www.w3.org/2000/svg" xmlns:xlink="http://www.w3.org/1999/xlink" version="1.1" viewBox="0 0 100 100">
  <g>
    <g>
      <path d="M14.6,85.4c19.6,19.5,51.2,19.5,70.8,0c19.5-19.6,19.5-51.2,0-70.8c-19.6-19.5-51.2-19.5-70.8,0c-19.5,19.6-19.5,51.2,0,70.8ZM81.074,16.126l-64.948,64.948c-16.614-17.992-16.156-46.142,1.374-63.574c17.432-17.53,45.582-17.988,63.574-1.374ZM18.926,83.874l64.948-64.948c16.614,17.992,16.156,46.142-1.374,63.574c-17.432,17.53-45.582,17.988-63.574,1.374Z"/>
    </g>
    <g transform="translate(32.32, 32.32) scale(0.9) translate(-32.32, -32.32)">
      <path d="M49.6,36.2c-2.5-0.6-1,2.8-4.3,1.9c-0.6-0.1-1.5-0.5-2.5-1c-0.6,0.5-1.4,1.1-1.6,1.7c-0.3,1.3,1.6,3,1.9,3.1c2.1,0.4,3.1-1,2.1,2.9c-0.2,0.5-1.9,4.8-3.2,7.3c0-0.6,0.2-6.3-1.6-6.8c-0.6-0.1-1.6,0.4-2.3,0.3c-1.3-0.4-2-2.3-2-3.9c-1.8-0.2-3,0.4-3.4,2c-0.9,3,4,2.3-0.4,5.1c-2.4,1.5-5.7,2.3-8,3.4c1.2-0.9,3.6-3.6,4-5c0.6-2-4-2.5-0.4-6.8c-0.2-0.4-0.9-1.1-1.5-1.3c-5.4-1.4-0.3,5.2-6.5,3.6c-0.5-0.1-4.9-2-7.2-3.1c12.2,0.2,3-4.3,10.5-5.8c0-1.3-0.2-2.9-2-3.4c-0.9-0.2-1.7,1.4-3.2,1.6c-2.4,0.4-4-6.6-5.3-9.3c1.4,1.2,3,3.2,4.8,3.7c2.1,0.6,1.9-2.5,4.4-1.8c0.5,0.1,1.5,0.9,2.1,1.3c0.7-0.6,1.6-1.6,1.8-2.2c0.2-0.9-0.9-2.9-1.6-3c-1.5-0.4-3.4,0.8-2.4-3.2l3.5-7.5c-0.1,0.4-0.6,6.5,1.4,7c0.5,0,1.6-0.3,2.2-0.1c2.2,0.6,1.7,3.6,2.2,3.9c1.7,0.4,3.3-0.9,3.6-2.2c0.8-2.6-1.6-2.3-1.3-3.6c0.5-2,9.3-4.7,9.7-4.7c-8.9,6.9,0.7,5-3.5,11.8c0.6,0.6,1.5,1.6,2.1,1.8c2.8,0.7,2.1-3.1,2.5-3.5c0.5-0.9,2.5-0.1,3.4,0c0.5,0.1,4.9,1.9,7.4,3.1c-2.1,0-6.4-0.4-6.9,1c-0.1,0.7,0.1,1.9-0.1,2.9c-0.4,1.2-2.7,1.5-3.8,2c0.4,1.3,0.1,2.4,1.9,2.9s1-1.6,3.3-1.6c2.8-0.1,3.6,6.1,5.3,9.6c-1.1-0.9-3.3-3.6-5.1-4.1ZM36.1,22c-4.9-1.3-10.3,1.6-11.5,6.6c-1.3,4.3,1.2,10.1,6.7,11.6c4.5,1.2,10-1,11.5-6.6c1.2-4.7-1.5-10.2-6.7-11.6ZM31.4,39.2c-4.4-1.2-7.1-5.9-6-10.3c1.2-4.4,5.9-7.1,10.4-5.9s7.3,5.9,6.1,10.3c-1.3,5-6.2,7.1-10.5,5.9Z" fill="#89723E"/>
    </g>
    <g transform="translate(67.68, 67.68) scale(0.9) translate(-67.68, -67.68)">
      <path d="M89.7,66.8v-2.6c-0.5-2.8-1.4-5.5-2.7-7.8c-0.5-0.9-3.2-4.8-3.9-4.8c-0.1,0-4.9,2.7-6.8,2.5c1.6-0.9,3.9-2.3,5.3-3.9c-4.1-3.5-8.8-4-12.7-4c-2.8,0-3.6,0.1-5.3,0.4c-1.2,0.1-5.6,1.6-5.6,2.6c0,0.3,0.1,3.2,1.1,4.3c1,1.3,3.7,2.7,4.5,3.5c-1.3-0.5-2.6-1.1-3.9-1.4c-1.1-0.3-2.3-0.3-2.4-0.6c-0.5-1.2-0.8-3.3-1.1-4.5c-5.5,4.4-7.6,10.3-7.6,15.3c0,2.5,0.2,6.3,4.4,7.1c1.4,0.1,2.9,0.6,4.3,0.9c0.6,0.1,1.8,0.1,2,0.4c1.8,2.5,0.9,2.1,0.8,3l-0.5,7.6c-0.1,2.1,0.2,3.5,3.1,3.5h0.3c0-1,0.4-2.4,0.4-2.5c0-0.4-0.4-1.7-0.4-2c0-0.1,0.4-1.6,0.7-2.4h0.5c0.6,2.1,1.1,4.5,1.6,6.1c0.6,0,0.5,0.2,2.1,0l0.8-5.9c0.4,0,1.1-0.2,1.4,0.3v4.5h0.4c1-0.6,2-1.4,2.9-1.9c0.1-1.9-0.4-2.1,0-2.7h1c0.4,0.9,0.8,2.3,0.8,2.5s-0.3,1.6-0.3,1.9c0,0.5-0.1,0.5,0.5,2.6c1.4-0.4,1.9-0.4,2.8-0.5l0.5-3.2l-0.5-4v-5.1c0-4.7,11.5,0.4,11.5-9.2ZM65.6,67.9c0,2.4-3,2.3-4.3,2.2h-3.5c-2.1-0.1-5.9,0-5.9-3.3c0-2.9,2.6-6.5,6.2-6.5c3.7,0.1,7.5,4.2,7.5,7.6ZM72.4,75.8c0,0.1,0.1,3.4-0.6,3.4c-0.2,0-1.2-0.7-2.9-0.7c-2.1,0-1.1,0.2-2.6,0.6c-0.5-0.7-0.5-2.5-0.5-3.4c0-2.3,0.8-5.8,2.1-7.1c0.1,0,0.3,0.1,0.3,0.1v2.2l0.5,5.9h0.4c0.6,0,0.4-0.5,0.4-0.9l0.6-7.4c0.7,1.1,1.1,2.6,1.4,3.5c0.6,1.5,0.8,1.6,0.9,1.8s0,0.4,0,2ZM86.7,66.9c0,2.7-2.4,3.2-4.1,3.2h-7.2c-1.5,0-2.2-0.9-2.2-2.2c0-3.5,3.8-7.5,7.3-7.5c3.6,0,6.2,3.5,6.2,6.5Z" fill="#281C1C"/>
    </g>
  </g>
</svg>
