<?xml version='1.0' encoding='ASCII' standalone='yes'?>
<svg xmlns="http://www.w3.org/2000/svg" xmlns:xlink="http://www.w3.org/1999/xlink" version="1.1" viewBox="0 0 108 100">
  <g>
    <g transform="translate(8, 0) scale(1 1) ">
      <g transform="translate(0 -1)" fill="none">
        <circle fill="#CAC5C0" cx="50" cy="50.998" r="50"/>
        <path d="M55.685 11.001v64.108c0 7.671 3.226 11.504 9.687 11.504h1.684v4.388h-34.111v-4.388h2.141c6.247 0 9.369-3.833 9.369-11.504v-42.054c0-7.758-2.697-11.643-8.081-11.643h-3.429v-4.247h1.237c6.66 0 12.691-2.057 18.08-6.165l3.423.001z" fill="#0D0F0F"/>
      </g>
    </g>
    <g transform="translate(0, 8) scale(1 1) ">
      <path d="M58,92c11.8,0,22.6-4.1,31.1-10.9c-9.1,11.5-23.3,18.9-39.1,18.9c-27.6,0-50-22.4-50-50c0-15.8,7.4-30,18.9-39.1c-6.8,8.5-10.9,19.3-10.9,31.1c0,27.6,22.4,50,50,50Z"/>
    </g>
  </g>
</svg>
