<svg xmlns="http://www.w3.org/2000/svg" viewBox="0 0 196 100">
    <path d="M146,0h-88c-27.6,0-50,22.4-50,50s22.4,50,50,50h88c27.6,0,50-22.4,50-50s-22.4-50-50-50Z" fill="#CAC5C0"></path>
    <path d="M48.4,13h3.2v59.3c0,7.1,3,10.6,8.9,10.6h1.6v4.1h-31.6v-4.1h2c5.8,0,8.7-3.5,8.7-10.6v-38.9c0-7.2-2.5-10.8-7.5-10.8h-3.2v-3.9h1.2c6.1,0,11.7-1.9,16.7-5.7ZM71.1,52.2c0-8.1,1.9-17.4,5.8-24.1c4.7-9.5,11.2-14.2,19.4-14.2c8.1,0,14.5,4,19,12.1c3.9,6.6,5.8,14.4,5.8,23.2c0,9.1-1.9,17.4-5.8,24.8c-4.6,9.3-11.1,13.9-19.4,13.9c-7.9,0-14.1-4-18.8-12c-4-6.8-6-14.4-6-22.8ZM81.6,45.8v2.3c0,12,1.8,21.3,5.3,27.9c2.5,4.7,5.7,7,9.6,7c9.4,0,14.1-9.7,14.1-29.1c0-8.6-0.7-15.8-2.2-21.7c-2.6-9.7-7-14.6-13.1-14.6c-9.1,0-13.7,9.4-13.7,28.2ZM132.5,52.2c0-8.1,1.9-17.4,5.7-24.1c4.7-9.5,11.2-14.2,19.4-14.2s14.5,4,19.1,12.1c3.8,6.6,5.7,14.4,5.7,23.2c0,9.1-1.9,17.4-5.7,24.8c-4.7,9.3-11.1,13.9-19.5,13.9c-7.8,0-14.1-4-18.8-12c-3.9-6.8-5.9-14.4-5.9-22.8ZM142.9,45.8v2.3c0,12,1.8,21.3,5.4,27.9c2.5,4.7,5.7,7,9.6,7c9.4,0,14.1-9.7,14.1-29.1c0-8.6-0.8-15.8-2.3-21.7c-2.6-9.7-6.9-14.6-13.1-14.6c-9.1,0-13.7,9.4-13.7,28.2Z"></path>
    <path d="M0,58c0-15.8,7.4-30,18.9-39.1c-6.8,8.5-10.9,19.3-10.9,31.1c0,27.6,22.4,50,50,50h88c11.8,0,22.6-4.1,31.1-10.9c-9.1,11.5-23.3,18.9-39.1,18.9h-88c-27.6,0-50-22.4-50-50Z"></path>
</svg>
