<svg xmlns="http://www.w3.org/2000/svg" viewBox="0 0 516 100">
    <path d="M466,0h-408c-27.6,0-50,22.4-50,50s22.4,50,50,50h408c27.6,0,50-22.4,50-50s-22.4-50-50-50Z" fill="#CAC5C0"></path>
    <path d="M92.1,85.5v-2.6c6.9-0.7,10.4-3.3,10.4-7.6c0-2.5-1-3.8-2.9-4l-1-0.1c-2.8-0.2-4.2-1.5-4.2-4.1c0-1.4,0.4-2.6,1.3-3.4s2-1.2,3.5-1.2c2.4,0,4.3,1.2,5.7,3.6c1.2,2.1,1.8,4.4,1.8,7.1c0,4.1-1.4,7.3-4.3,9.4c-2.6,1.9-6,2.8-10.3,2.9ZM294.6,85.5v-2.6c6.9-0.7,10.3-3.3,10.3-7.6c0-2.5-0.9-3.8-2.9-4l-0.9-0.1c-2.8-0.2-4.2-1.5-4.2-4.1c0-1.4,0.4-2.6,1.3-3.4c0.8-0.8,2-1.2,3.5-1.2c2.4,0,4.3,1.2,5.7,3.6c1.2,2.1,1.8,4.4,1.8,7.1c0,4.1-1.4,7.3-4.3,9.4c-2.6,1.9-6,2.8-10.3,2.9ZM438.5,50.4c0-9.6,2.1-18.4,6.1-26.4c5-10,11.9-15,20.6-15s15.4,4.2,20.3,12.7c4,7,6,15.2,6,24.5c0,9.6-2,18.3-6,26.1c-5,9.8-11.9,14.7-20.7,14.7c-8.3,0-15-4.2-19.9-12.6c-4.3-7.2-6.4-15.2-6.4-24ZM449.6,46c0,12.6,1.9,22.4,5.7,29.4c2.7,4.9,6.1,7.4,10.2,7.4c10,0,14.9-10.2,14.9-30.7c0-9-0.8-16.7-2.3-22.9c-2.8-10.2-7.4-15.3-13.9-15.3c-9.7,0-14.6,9.9-14.6,29.6ZM377.5,50.4c0-9.6,2.1-18.4,6.1-26.4c5-10,11.9-15,20.6-15s15.4,4.2,20.3,12.7c4,7,6,15.2,6,24.5c0,9.6-2,18.3-6,26.1c-5,9.8-11.9,14.7-20.7,14.7c-8.3,0-15-4.2-19.9-12.6c-4.3-7.2-6.4-15.2-6.4-24ZM388.6,46c0,12.6,1.9,22.4,5.7,29.4c2.7,4.9,6.1,7.4,10.2,7.4c10,0,14.9-10.2,14.9-30.7c0-9-0.8-16.7-2.3-22.9c-2.8-10.2-7.4-15.3-13.9-15.3c-9.7,0-14.6,9.9-14.6,29.6ZM316.2,50.4c0-9.6,2-18.4,6.1-26.4c5-10,11.9-15,20.6-15s15.4,4.2,20.2,12.7c4.1,7,6.1,15.2,6.1,24.5c0,9.6-2,18.3-6.1,26.1c-4.9,9.8-11.8,14.7-20.6,14.7c-8.4,0-15-4.2-19.9-12.6c-4.3-7.2-6.4-15.2-6.4-24ZM327.3,46c0,12.6,1.9,22.4,5.7,29.4c2.6,4.9,6,7.4,10.2,7.4c9.9,0,14.9-10.2,14.9-30.7c0-9-0.8-16.7-2.4-22.9c-2.7-10.2-7.3-15.3-13.8-15.3c-9.7,0-14.6,9.9-14.6,29.6ZM234.9,50.4c0-9.6,2-18.4,6-26.4c5.1-10,11.9-15,20.7-15c8.6,0,15.3,4.2,20.2,12.7c4,7,6.1,15.2,6.1,24.5c0,9.6-2.1,18.3-6.1,26.1c-4.9,9.8-11.8,14.7-20.6,14.7c-8.4,0-15.1-4.2-20-12.6c-4.2-7.2-6.3-15.2-6.3-24ZM246,46c0,12.6,1.9,22.4,5.7,29.4c2.6,4.9,6,7.4,10.1,7.4c10,0,15-10.2,15-30.7c0-9-0.8-16.7-2.4-22.9c-2.7-10.2-7.4-15.3-13.9-15.3c-9.7,0-14.5,9.9-14.5,29.6ZM173.9,50.4c0-9.6,2-18.4,6-26.4c5.1-10,11.9-15,20.7-15c8.6,0,15.3,4.2,20.2,12.7c4,7,6.1,15.2,6.1,24.5c0,9.6-2.1,18.3-6.1,26.1c-4.9,9.8-11.8,14.7-20.6,14.7c-8.4,0-15.1-4.2-20-12.6c-4.2-7.2-6.3-15.2-6.3-24ZM185,46c0,12.6,1.9,22.4,5.7,29.4c2.6,4.9,6,7.4,10.1,7.4c10,0,15-10.2,15-30.7c0-9-0.8-16.7-2.4-22.9c-2.7-10.2-7.4-15.3-13.9-15.3c-9.7,0-14.5,9.9-14.5,29.6ZM112.5,50.4c0-9.6,2.1-18.4,6.1-26.4c5-10,11.9-15,20.7-15c8.6,0,15.3,4.2,20.2,12.7c4,7,6.1,15.2,6.1,24.5c0,9.6-2.1,18.3-6.1,26.1c-5,9.8-11.8,14.7-20.6,14.7c-8.4,0-15.1-4.2-20-12.6c-4.2-7.2-6.4-15.2-6.4-24ZM123.6,46c0,12.6,1.9,22.4,5.7,29.4c2.7,4.9,6.1,7.4,10.2,7.4c10,0,15-10.2,15-30.7c0-9-0.8-16.7-2.4-22.9c-2.8-10.2-7.4-15.3-13.9-15.3c-9.7,0-14.6,9.9-14.6,29.6ZM69.8,9v62.5c0,7.5,3.2,11.2,9.7,11.2h1.7v4.3h-34.1v-4.3h2.1c6.2,0,9.4-3.7,9.4-11.2v-41c0-7.6-2.7-11.3-8.1-11.3h-3.4v-4.2h1.2c6.7,0,12.7-2,18.1-6Z"></path>
    <path d="M497.1,89.1c-8.5,6.8-19.3,10.9-31.1,10.9h-408c-27.6,0-50-22.4-50-50c0-11.8,4.1-22.6,10.9-31.1c-11.5,9.1-18.9,23.3-18.9,39.1c0,27.6,22.4,50,50,50h408c15.8,0,30-7.4,39.1-18.9Z"></path>
</svg>
