<?xml version='1.0' encoding='ASCII' standalone='yes'?>
<svg xmlns="http://www.w3.org/2000/svg" xmlns:xlink="http://www.w3.org/1999/xlink" version="1.1" viewBox="0 0 108 100">
  <g>
    <g transform="translate(8, 0) scale(1 1) "><g fill="none">
        <circle fill="#CAC5C0" cx="50" cy="50" r="50"/>
        <path d="M36.308 19.471v49.053c0 5.789 2.427 8.684 7.276 8.684h1.154v3.322h-26.062v-3.322h1.663c4.938 0 7.407-2.895 7.407-8.684v-32.191c0-5.879-2.09-8.816-6.259-8.816h-2.557v-3.32h1.023c5.021 0 9.579-1.574 13.665-4.725l2.69-.001zm43.047 43.687v5.109c0 5.707 1.996 8.561 6.003 8.561h1.658v3.316h-24.398v-3.316h1.918c4.003 0 6.004-2.813 6.004-8.43v-5.24h-24.528v-5.109l25.932-37.814h7.412v38.578h.639c2.47 0 4.299-1.953 5.489-5.873h3.066l-1.533 10.219-7.662-.001zm-6.773-5.109v-32.189l-21.716 32.189h21.716z" fill="#0D0F0F"/>
    </g>
</g>
    <g transform="translate(0, 8) scale(1 1) ">
      <path d="M58,92c11.8,0,22.6-4.1,31.1-10.9c-9.1,11.5-23.3,18.9-39.1,18.9c-27.6,0-50-22.4-50-50c0-15.8,7.4-30,18.9-39.1c-6.8,8.5-10.9,19.3-10.9,31.1c0,27.6,22.4,50,50,50Z"/>
    </g>
  </g>
</svg>
