<?xml version='1.0' encoding='ASCII' standalone='yes'?>
<svg xmlns="http://www.w3.org/2000/svg" xmlns:xlink="http://www.w3.org/1999/xlink" version="1.1" viewBox="0 0 108 100">
  <g>
    <g transform="translate(8, 0) scale(1 1) "><g fill="none">
        <circle fill="#CAC5C0" cx="50" cy="50" r="50"/>
        <path d="M34.67 18.129v50.84c0 6.045 2.516 9.07 7.537 9.07h1.277v3.445h-27.078v-3.445h1.787c5.109 0 7.666-3.025 7.666-9.07v-33.344c0-6.129-2.172-9.195-6.518-9.195h-2.682v-3.449h1.023c5.281 0 10.047-1.617 14.305-4.852h2.683zm17.885 1.273h23.121c2.984 0 4.771-.336 5.369-1.02h3.322l-1.918 8.688h-28.229l-2.682 12.516c3.998-1.617 7.578-2.428 10.729-2.428 6.133 0 11.305 2.049 15.52 6.135 4.215 4.084 6.32 9.193 6.32 15.328 0 7.152-2.723 12.898-8.17 17.246-5.115 4-11.291 6.004-18.525 6.004-4.258 0-8.43-.641-12.516-1.918l1.273-3.191c3.404.934 6.43 1.402 9.07 1.402 5.281 0 9.902-1.742 13.861-5.234 3.961-3.492 5.936-7.84 5.936-13.031 0-4.512-1.465-8.219-4.402-11.113-2.941-2.895-6.621-4.344-11.051-4.344-4.172 0-8.045 1.449-11.625 4.344l-2.168-.383 6.765-29.001z" fill="#0D0F0F"/>
    </g>
</g>
    <g transform="translate(0, 8) scale(1 1) ">
      <path d="M58,92c11.8,0,22.6-4.1,31.1-10.9c-9.1,11.5-23.3,18.9-39.1,18.9c-27.6,0-50-22.4-50-50c0-15.8,7.4-30,18.9-39.1c-6.8,8.5-10.9,19.3-10.9,31.1c0,27.6,22.4,50,50,50Z"/>
    </g>
  </g>
</svg>
