<?xml version='1.0' encoding='ASCII' standalone='yes'?>
<svg xmlns="http://www.w3.org/2000/svg" xmlns:xlink="http://www.w3.org/1999/xlink" version="1.1" viewBox="0 0 108 100">
  <g>
    <g transform="translate(8, 0) scale(1 1) ">
      <g transform="translate(0 -1)" fill="none">
        <circle fill="#CAC5C0" cx="50" cy="50.998" r="50"/>
        <path d="M64.27 68.359v6.723c0 7.684 2.695 11.525 8.094 11.525h2.33v4.394h-32.658v-4.394h2.607c5.303 0 7.961-3.798 7.961-11.392v-6.856h-32.795v-6.861l34.578-50.497h9.883v51.592h.82c3.383 0 5.852-2.608 7.408-7.816h4.115l-1.92 13.583-10.423-.001zm-11.666-5.766v-41.458l-27.893 41.458h27.893z" fill="#0D0F0F"/>
      </g>
    </g>
    <g transform="translate(0, 8) scale(1 1) ">
      <path d="M58,92c11.8,0,22.6-4.1,31.1-10.9c-9.1,11.5-23.3,18.9-39.1,18.9c-27.6,0-50-22.4-50-50c0-15.8,7.4-30,18.9-39.1c-6.8,8.5-10.9,19.3-10.9,31.1c0,27.6,22.4,50,50,50Z"/>
    </g>
  </g>
</svg>
