<?xml version='1.0' encoding='ASCII' standalone='yes'?>
<svg xmlns="http://www.w3.org/2000/svg" xmlns:xlink="http://www.w3.org/1999/xlink" version="1.1" viewBox="0 0 108 100">
  <g>
    <g transform="translate(8, 0) scale(1 1) "><g fill="none">
        <circle fill="#CAC5C0" cx="50" cy="50" r="50"/>
        <path d="M74.355 79.999h-53.76v-2.711l42.635-57.22h-18.979c-3.118.063-5.517.391-7.2.981-1.683.594-3.242 1.73-4.675 3.413-.125.126-.233.25-.327.374-.093.126-.203.25-.327.373-.25.375-.483.702-.702.982-.219.28-.42.577-.607.889-.063.188-.156.374-.28.561l-.374.562c-.126.374-.281.765-.467 1.168-.188.406-.407.889-.654 1.449l-3.367-.094v-14.491h51.049v2.524l-43.007 57.406h18.605c2.805.063 5.033 0 6.685-.188 1.65-.187 3.193-.59 4.628-1.213l.514-.188.421-.188c.873-.436 1.714-.935 2.524-1.496.809-.561 1.62-1.215 2.431-1.963.561-.562 1.122-1.168 1.683-1.822.561-.655 1.153-1.388 1.777-2.197l2.431-3.461h3.552l-4.209 16.55z" fill="#0D0F0F"/>
    </g>
</g>
    <g transform="translate(0, 8) scale(1 1) ">
      <path d="M58,92c11.8,0,22.6-4.1,31.1-10.9c-9.1,11.5-23.3,18.9-39.1,18.9c-27.6,0-50-22.4-50-50c0-15.8,7.4-30,18.9-39.1c-6.8,8.5-10.9,19.3-10.9,31.1c0,27.6,22.4,50,50,50Z"/>
    </g>
  </g>
</svg>
