<svg xmlns="http://www.w3.org/2000/svg" viewBox="0 0 100 100"><path d="M41.9,39.8v5l0.4,4l-0.4,3.1c-1,0.2-1.5,0.2-2.9,0.5c-0.5-2-0.5-2-0.5-2.5l0.4-1.9c0-0.2-0.4-1.6-0.9-2.5h-0.9c-0.5,0.6,0.1,0.8,0,2.6c-1,0.6-1.9,1.4-2.9,2c-0.1,0-0.2-0.1-0.4-0.1v-4.3c-0.3-0.5-1-0.2-1.4-0.4l-0.8,6c-1.6,0.1-1.5,0-2.2,0c-0.4-1.6-0.9-4.1-1.5-6.1h-0.5c-0.4,0.8-0.7,2.3-0.7,2.4c0,0.3,0.3,1.6,0.3,1.9c0,0.2-0.3,1.6-0.3,2.5c-0.1,0-0.1,0.1-0.3,0.1c-2.9,0-3.3-1.4-3.1-3.6l0.5-7.6c0.1-0.9,1-0.5-0.8-2.9c-0.2-0.4-1.4-0.4-2-0.5l-4.3-0.9c-4.1-0.8-4.4-4.5-4.4-7c0-5,2.1-10.9,7.6-15.4c0.4,1.3,0.6,3.4,1.1,4.6c0.1,0.3,1.2,0.3,2.4,0.6c1.3,0.3,2.6,0.9,3.9,1.4c-0.8-0.9-3.5-2.2-4.6-3.5c-0.9-1.1-1-4-1-4.3c0-1,4.4-2.5,5.6-2.7c1.6-0.1,2.5-0.4,5.3-0.4c3.9,0,8.5,0.5,12.7,4.1c-1.4,1.5-3.7,3-5.3,3.9c1.9,0.1,6.6-2.5,6.8-2.5c0.7,0,3.4,3.9,3.9,4.8c1.3,2.3,2.2,4.9,2.7,7.8v2.6c0.1,9.6-11.5,4.5-11.5,9.2ZM21.8,24.1c-3.5,0-6.1,3.7-6.1,6.5c0,3.4,3.7,3.1,5.9,3.3h3.5c1.3,0.1,4.3,0.2,4.3-2.1c-0.1-3.5-3.8-7.7-7.6-7.7ZM35.2,35.8c-0.3-0.9-0.6-2.5-1.4-3.5l-0.6,7.4c0,0.3,0.3,0.9-0.4,0.9c-0.3,0-0.4-0.1-0.4-0.1l-0.5-5.8v-2.3c0-0.1-0.1-0.1-0.3-0.1c-1.4,1.4-2.2,4.8-2.2,7.1c0,0.9,0,2.6,0.5,3.4c1.6-0.5,0.6-0.6,2.7-0.6c1.7,0,2.6,0.6,2.9,0.6c0.8,0,0.6-3.1,0.6-3.4c0-1.7,0.1-1.7,0-1.9s-0.3-0.5-0.9-1.7ZM44.2,24.1c-3.5,0-7.3,4-7.3,7.6c0,1.3,0.8,2.1,2.1,2.1h7.3c1.7,0,4.1-0.5,4.1-3.1c0.1-3-2.6-6.6-6.2-6.6Z" fill="#281C1C"></path></svg>
