<svg xmlns="http://www.w3.org/2000/svg" viewBox="0 0 100 100"><path d="M49.2,37.5c-0.6,0-1.6-0.1-2-0.5c-0.3-0.4-0.6-0.9-0.8-1.1l-2.8-0.2c-1.9,0-6.5,1.8-6.6,2.1c-1,1-1.5,5.5-1.5,6.4c0,1.9,0.3,2.9,2.5,3.5l2,0.6l1.5-0.1c0.4,0,2.8,0.4,2.6,1.2c-0.7,0.3-1.7-0.2-2.9,0.4c0.3,0.2,1.1,0.6,1.6,0.8c0,0.7-1.6,0.7-2,0.7c-1.1,0-2.3-0.4-2.7-0.4h-0.6c-0.2,0.5-0.2,1-0.4,1.6c-2.1-0.1-2.9-2.3-4.1-2.3c-0.7,0-1.7,2.5-1.7,2.7c-1.1-0.6-1.5-2.5-1.8-3.1c-1,0.1-1.6,1.9-2.1,2.5h-0.4c-0.6-0.9-0.5-2.5-0.9-2.5c-1-0.3-1.9-0.6-3.4-0.6l-2.4,0.4l-1.7-0.1c0.3-0.4,3.5-2.5,5.1-2.5l0.9,0.1c0.5,0,2.2-0.7,2.4-1.1c0.1-0.4,0.2-1.8,0.2-2c0-3.4-1.1-6.1-6.9-7.1c-0.6,2.5-3,3.4-5.3,3.4c-2.2,0-4.2-3.4-4.2-4.9c0-1,0.2-2.3,1.9-3.6c-1.2-1.1-1.5-1.9-1.5-3c0-1.6,1-3.7,3.3-4c0-0.8,0-1.9,1.3-2.6c-0.4-0.4-0.7-1.6-0.7-2.3c0-2.5,2-4.5,4.6-4.5c1,0,2.4,0.3,3.5,1.5c1.3-4.4,4.1-5.9,7.4-5.9c3.9,0,5.8,3.4,6,3.4c0.1,0,0.8-0.6,2.8-0.6c2.9,0,5.3,2.2,6.3,5.6c0,0.1,0.8,0.1,1.3,0.4c0.9,0.5,1.3,1.5,1.3,2.3c0,0.3-0.3,0.6-0.5,1.1c2.6,1.4,3.8,3.3,3.8,5.9c0,1-0.2,1.6-0.8,2.9c1.1,0.7,1.5,1.7,1.5,2.6c-0.1,1.5-1.5,2.9-3.1,2.9ZM27.9,37.1v-0.8c0-1.8-2.1-3.5-4-3.5c-0.9,0-2.1,0.3-3.1,0.6c2.4-0.1,5,1.6,7.1,3.7ZM25.2,27.7c-0.8,0.2-2.5,0.5-2.5,1.5c1.2-0.1,2.9,0.6,4,0.6c-0.6-0.7-1.1-1.4-1.5-2.1ZM30.4,28v-2.7c-0.5-0.1-1-0.2-1.6-0.2v1c0,0.4,1.4,1.6,1.6,1.9ZM35.4,25.1v5.1c1.8-1,2.8-2.3,2.6-3.9c-0.9-0.5-1.4-0.6-2.6-1.2ZM40,31.7c-2.1,1.6-2.8,1.5-4.5,3.5c2-1,3.8-1.5,5.9-2c-0.5-0.4-1-1-1.4-1.5Z" fill="#027920"></path></svg>
