<svg xmlns="http://www.w3.org/2000/svg" viewBox="0 0 100 100"><path d="M81.5,67.6c0.4,1.9-0.7,3.5-0.7,5.3c0,1.4-1.2,2.2-1.7,3.3c-1.5,1.9-3.7,3.2-5.7,4.4c-1.1,0.8-2.7,0.2-3.7,1.1c-0.6,2,0.5,4.1,0,6.2c-0.4,1.4-0.4,2.9-0.8,4.3c-1.245-3.024-1.778-6.205-2.373-9.405c0.086-1.226,0.11-7.129,0.173-7.895c-0.1-2.8-0.8-5.6-0.1-8.4c0.3-1.4-0.2-2.7,0-4.1c0.1-0.6-0.1-1.2-0.3-1.8c-0.2-1-0.1,3,0-3c-1.1,0-2.3-0.4-3.1,0.5c-1.1,1.1-2.4,2-3.3,3.3c-0.3,1.1-1.2,1.9-1.8,2.9c-0.1,1.2-0.4,2.4-0.6,3.7c0.5,1.7,0.3,3.7,1.5,5.2c1.3,0.9,1.8,2.6,3.2,3.5c1.2,0.8,2.6,1.5,4.1,1.9c0.048,1.795,0.088,2.957,0.122,3.636l-0.122-0.636c-0.8-0.2-1.7-0.3-2.6-0.5c-1.3-0.7-2.6-1.3-3.9-2.1c-1.3-1.1-2.2-2.5-3.6-3.6c-1.8-2.4-2.4-5.5-2.4-8.4c0.8-1.9,1-4.2,2.3-5.8c0.4-1.3,1.2-2.2,2-3.2c1-0.6,2-1.3,2.9-2.1c1.3-1.1,3.1-1.3,4.6-2c0.7-0.8,1.3-1.8,1-2.8c0.5-1.1,0.5-2.3,0.7-3.5c0.4-1.4,1-2.9,1.2-4.4c0.7,0.4,0.6,1.3,0.7,2.1c0.1,1.4-0.4,2.9,0.2,4.3c0.2,0.3,0.1,0.7,0,1.1c-0.3,1.2,0.2,2.4,0.3,3.6c2.3,1.2,5.1,1.3,7,3.1c0.8,0.9,1.5,1.9,2.3,2.8c1.6,2.1,2.5,4.8,2.5,7.4ZM77.5,73.3c1-2.5,0.6-5.2,0.7-7.9c0-1.1-1.2-1.7-1.3-2.8c-0.3-1.6-2.1-2.2-3.2-3.1c-1-0.8-2.1-1.4-3.3-1.9c-0.3,1.1-0.8,2.2-0.7,3.4c0.7,1.5,0.6,3.3,0.7,5c-0.2,2.8-1.4,5.7-0.4,8.5c0.4,1.3,0.3,2.6,0.1,3.8c1.8-0.5,3.2-1.6,4.7-2.6c0.9-0.8,1.7-1.7,2.7-2.4ZM45.8,32.2c0.4,1.9-0.7,3.5-0.7,5.3c0,1.4-1.2,2.2-1.7,3.3c-1.5,1.9-3.7,3.2-5.7,4.4c-1.1,0.8-2.7,0.2-3.7,1.1c-0.6,2,0.5,4.1,0,6.2c-0.4,1.4-0.4,2.9-0.8,4.3c-1.245-3.024-1.778-6.205-2.373-9.405c0.086-1.226,0.11-7.129,0.173-7.895c-0.1-2.8-0.8-5.6-0.1-8.4c0.3-1.4-0.2-2.7,0-4.1c0.1-0.6-0.1-1.2-0.3-1.8c-0.2-1-0.1,3,0-3c-1.1,0-2.3-0.4-3.1,0.5c-1.1,1.1-2.4,2-3.3,3.3c-0.3,1.1-1.2,1.9-1.8,2.9c-0.1,1.2-0.4,2.4-0.6,3.7c0.5,1.7,0.3,3.7,1.5,5.2c1.3,0.9,1.8,2.6,3.2,3.5c1.2,0.8,2.6,1.5,4.1,1.9c0.048,1.795,0.088,2.957,0.122,3.636l-0.122-0.636c-0.8-0.2-1.7-0.3-2.6-0.5c-1.3-0.7-2.6-1.3-3.9-2.1c-1.3-1.1-2.2-2.5-3.6-3.6c-1.8-2.4-2.4-5.5-2.4-8.4c0.8-1.9,1-4.2,2.3-5.8c0.4-1.3,1.2-2.2,2-3.2c1-0.6,2-1.3,2.9-2.1c1.3-1.1,3.1-1.3,4.6-2c0.7-0.8,1.3-1.8,1-2.8c0.5-1.1,0.5-2.3,0.7-3.5c0.4-1.4,1-2.9,1.2-4.4c0.7,0.4,0.6,1.3,0.7,2.1c0.1,1.4-0.4,2.9,0.2,4.3c0.2,0.3,0.1,0.7,0,1.1c-0.3,1.2,0.2,2.4,0.3,3.6c2.3,1.2,5.1,1.3,7,3.1c0.8,0.9,1.5,1.9,2.3,2.8c1.6,2.1,2.5,4.8,2.5,7.4ZM41.8,37.9c1-2.5,0.6-5.2,0.7-7.9c0-1.1-1.2-1.7-1.3-2.8c-0.3-1.6-2.1-2.2-3.2-3.1c-1-0.8-2.1-1.4-3.3-1.9c-0.3,1.1-0.8,2.2-0.7,3.4c0.7,1.5,0.6,3.3,0.7,5c-0.2,2.8-1.4,5.7-0.4,8.5c0.4,1.3,0.3,2.6,0.1,3.8c1.8-0.5,3.2-1.6,4.7-2.6c0.9-0.8,1.7-1.7,2.7-2.4ZM30.722,46.836c0.044,0.867,0.077,0.948,0.105,0.559ZM66.422,82.236c0.044,0.867,0.077,0.948,0.105,0.559Z"></path></svg>