<svg xmlns="http://www.w3.org/2000/svg" viewBox="0 0 100 100"><path d="M77.3,82c-0.9,0-5.8,0.5-5.8,1.9c0,0.5,1,1.1,1.2,1.1s4,0.2,6.5,0.2c-4.8,2.9-13.3,3-17.7,2.9c-6.1-0.1-9.9-6.5-9.9-11c0-5.9,4.6-10.6,10.4-10.6c2.3,0,3.6,0.9,4.7,0.9c4.2,0,7.9-3.6,8.8-3.6c-0.1,2.6-0.6,6.4-4.3,8.5c-1.7,1.1-2.5,2-2.5,3c0,1.5,2.4,1.9,2.9,1.9c2.3,0,4.7-3.7,4.5-5.5c-0.2-1.4-0.1-3,0.2-4.4c0-0.6,1.1-2.6,2.3-3c0,1-0.8,2.3-0.8,3.6c0,0.6,0.4,1.9,0.6,2.1c1.4-0.5,2.6-3.8,2.8-6.2c-3.3-0.1-7.8-4-7-7.9c0.1,0.2,1.8,3.3,2.6,3.3c1.6,0,0.6-6.9-3.4-6.9c-2.1,0-2.4,1.8-5.6,1.8c-1.1,0-3-0.8-3.8-1.1c0.4-0.4,6,0.4,6-1.8c0-1.8-6.9-2.6-8.1-2.8l-2.9-0.2c0.1-0.1,3.9-1,7.3-1c9.9,0,15.8,5,18.4,14c2-1.7-1.2-7.8-1.5-8.8c3.2,4.1,5,7.9,5,11.9c0,6.8-4.9,8.6-8.3,13.6c3-0.8,5.9-1.6,8.6-4.5c0,0.9-0.4,1.5-0.7,2.4c-1.9,4.9-5.6,6.2-10.5,6.2ZM58.6,53.5c-1.3,0.5-1.9,2.4-2.5,3.3c-0.4-0.4-0.4-1.6-0.5-2.5c-0.8,0-2.8,1.9-3.6,2.2c0.4-2.8,4-7,6.6-7c1.5,0,2.9,0.9,2.9,2.4c0,1.7-2.4,1.3-2.9,1.6ZM68.7,59.9c-2.7,0-2.5-2.9-5.5-4.3c1.2-1,3.1,1.4,4.1,1.4s1-1.7,2.6-1.7c1.4,0,2,1.2,2,2.1c0.1,1.7-2.3,2.5-3.2,2.5Z" fill="#FD2302"></path></svg>
