<?xml version='1.0' encoding='utf-8'?>
<svg xmlns="http://www.w3.org/2000/svg" viewBox="0 0 140 100"><path d="M10.7,30l59.3-25c0.099,0,61.225,24.687,61.993,24.997c-0.223,0.329-4.539,10.122-3.093,24.003c1.3,12.8,7.9,26.6,7.9,26.6c-0.1-0.1-26.9,3.2-66.8,3.2c-45.1,0-63.7-3.2-63.7-3.2c-0.6,0,5.3-13.1,6.4-26.6c1-12.7-2-24-2-24ZM20.6,33.6c0,0,1.8,5.6,1.2,16.7c-1.1,16.6-5.6,24.7-5.6,24.7c0-0.8,27,1.6,53.8,1.6c27.3,0,55.5-1.6,55.5-1.6c-0.1-0.8-4.7-10.3-5.5-24.3c-0.7-11.5,1.5-17.1,1.5-17.1l-51.5-20.1Z" /><path d="M3.720703125 -22.529296875H16.93359375V-35.771484375H23.056640625V-22.529296875H36.298828125V-16.435546875H23.056640625V-3.251953125H16.93359375V-16.435546875H3.720703125Z M86.54296875 -2.783203125V0.0H63.076171875V-2.783203125Q67.8515625 -2.783203125 67.8515625 -4.98046875Q67.8515625 -6.650390625 65.244140625 -9.873046875L60.46875 -15.76171875L54.78515625 -9.169921875Q53.291015625 -7.412109375 53.291015625 -5.830078125Q53.291015625 -4.482421875 54.4921875 -3.6474609375Q55.693359375 -2.8125 57.333984375 -2.783203125V0.0H40.95703125V-2.783203125Q42.71484375 -2.841796875 44.4140625 -3.5595703125Q46.11328125 -4.27734375 47.0361328125 -5.1123046875Q47.958984375 -5.947265625 50.947265625 -9.43359375L58.65234375 -18.193359375L46.34765625 -34.365234375Q44.6484375 -36.591796875 43.4619140625 -37.3095703125Q42.275390625 -38.02734375 40.1953125 -38.14453125V-40.927734375H63.3984375V-38.14453125Q59.00390625 -38.0859375 59.00390625 -35.947265625Q59.00390625 -34.51171875 61.46484375 -31.259765625L65.33203125 -26.1328125L70.60546875 -32.28515625Q72.3046875 -34.27734375 72.3046875 -35.68359375Q72.3046875 -37.998046875 68.818359375 -38.14453125V-40.927734375H83.5546875V-38.14453125Q79.62890625 -37.79296875 75.322265625 -32.900390625L67.294921875 -23.7890625L78.69140625 -8.818359375Q81.9140625 -4.599609375 83.0126953125 -3.69140625Q84.111328125 -2.783203125 86.54296875 -2.783203125Z" fill="black" transform="translate(26.5673828125, 66.464)" /></svg>