<?xml version='1.0' encoding='utf-8'?>
<svg xmlns="http://www.w3.org/2000/svg" viewBox="0 0 140 100"><path d="M10.7,30l59.3-25c0.099,0,61.225,24.687,61.993,24.997c-0.223,0.329-4.539,10.122-3.093,24.003c1.3,12.8,7.9,26.6,7.9,26.6c-0.1-0.1-26.9,3.2-66.8,3.2c-45.1,0-63.7-3.2-63.7-3.2c-0.6,0,5.3-13.1,6.4-26.6c1-12.7-2-24-2-24ZM20.6,33.6c0,0,1.8,5.6,1.2,16.7c-1.1,16.6-5.6,24.7-5.6,24.7c0-0.8,27,1.6,53.8,1.6c27.3,0,55.5-1.6,55.5-1.6c-0.1-0.8-4.7-10.3-5.5-24.3c-0.7-11.5,1.5-17.1,1.5-17.1l-51.5-20.1Z" /><path d="M3.720703125 -22.529296875H16.93359375V-35.771484375H23.056640625V-22.529296875H36.298828125V-16.435546875H23.056640625V-3.251953125H16.93359375V-16.435546875H3.720703125Z M59.765625 -39.755859375V-10.517578125Q59.765625 -6.943359375 60.0146484375 -5.712890625Q60.263671875 -4.482421875 61.435546875 -3.6328125Q62.607421875 -2.783203125 64.892578125 -2.783203125H65.9765625V0.0H45.703125V-2.783203125H46.34765625Q49.5703125 -2.783203125 50.7275390625 -4.0869140625Q51.884765625 -5.390625 51.884765625 -9.345703125V-25.341796875Q51.884765625 -28.828125 50.859375 -30.146484375Q49.833984375 -31.46484375 46.728515625 -31.46484375H45.703125V-34.130859375Q47.98828125 -34.775390625 51.328125 -36.5478515625Q54.66796875 -38.3203125 56.1328125 -39.755859375Z" fill="black" transform="translate(34.375, 66.464)" /></svg>