<?xml version='1.0' encoding='utf-8'?>
<svg xmlns="http://www.w3.org/2000/svg" viewBox="0 0 140 100"><path d="M10.7,30l59.3-25c0.099,0,61.225,24.687,61.993,24.997c-0.223,0.329-4.539,10.122-3.093,24.003c1.3,12.8,7.9,26.6,7.9,26.6c-0.1-0.1-26.9,3.2-66.8,3.2c-45.1,0-63.7-3.2-63.7-3.2c-0.6,0,5.3-13.1,6.4-26.6c1-12.7-2-24-2-24ZM20.6,33.6c0,0,1.8,5.6,1.2,16.7c-1.1,16.6-5.6,24.7-5.6,24.7c0-0.8,27,1.6,53.8,1.6c27.3,0,55.5-1.6,55.5-1.6c-0.1-0.8-4.7-10.3-5.5-24.3c-0.7-11.5,1.5-17.1,1.5-17.1l-51.5-20.1Z" /><path d="M3.720703125 -22.529296875H16.93359375V-35.771484375H23.056640625V-22.529296875H36.298828125V-16.435546875H23.056640625V-3.251953125H16.93359375V-16.435546875H3.720703125Z M65.859375 -40.72265625 67.998046875 -39.66796875 65.302734375 -34.365234375Q64.74609375 -33.22265625 64.423828125 -33.046875Q64.1015625 -32.87109375 61.11328125 -32.87109375H52.32421875L50.15625 -27.802734375Q67.177734375 -23.935546875 67.177734375 -13.41796875Q67.177734375 -9.19921875 64.6728515625 -5.91796875Q62.16796875 -2.63671875 57.7880859375 -0.9521484375Q53.408203125 0.732421875 49.1015625 0.732421875Q43.505859375 0.732421875 43.505859375 -1.69921875Q43.505859375 -2.900390625 44.1943359375 -4.1015625Q44.8828125 -5.302734375 45.908203125 -5.302734375Q46.640625 -5.302734375 48.046875 -4.775390625Q51.85546875 -3.33984375 54.90234375 -3.33984375Q57.83203125 -3.33984375 59.4287109375 -5.0244140625Q61.025390625 -6.708984375 61.025390625 -9.169921875Q61.025390625 -13.88671875 55.3564453125 -16.875Q49.6875 -19.86328125 44.6484375 -21.064453125L52.32421875 -39.0234375H64.5703125Z" fill="black" transform="translate(34.375, 66.464)" /></svg>