<?xml version='1.0' encoding='utf-8'?>
<svg xmlns="http://www.w3.org/2000/svg" viewBox="0 0 140 100"><path d="M10.7,30l59.3-25c0.099,0,61.225,24.687,61.993,24.997c-0.223,0.329-4.539,10.122-3.093,24.003c1.3,12.8,7.9,26.6,7.9,26.6c-0.1-0.1-26.9,3.2-66.8,3.2c-45.1,0-63.7-3.2-63.7-3.2c-0.6,0,5.3-13.1,6.4-26.6c1-12.7-2-24-2-24ZM20.6,33.6c0,0,1.8,5.6,1.2,16.7c-1.1,16.6-5.6,24.7-5.6,24.7c0-0.8,27,1.6,53.8,1.6c27.3,0,55.5-1.6,55.5-1.6c-0.1-0.8-4.7-10.3-5.5-24.3c-0.7-11.5,1.5-17.1,1.5-17.1l-51.5-20.1Z" /><path d="M3.720703125 -22.529296875H16.93359375V-35.771484375H23.056640625V-22.529296875H36.298828125V-16.435546875H23.056640625V-3.251953125H16.93359375V-16.435546875H3.720703125Z M46.46484375 0.732421875 44.560546875 -1.611328125Q58.388671875 -6.826171875 59.82421875 -17.783203125Q58.974609375 -16.875 56.7626953125 -15.908203125Q54.55078125 -14.94140625 52.44140625 -14.94140625Q48.017578125 -14.94140625 44.9560546875 -18.28125Q41.89453125 -21.62109375 41.89453125 -26.71875Q41.89453125 -32.021484375 45.7177734375 -35.888671875Q49.541015625 -39.755859375 55.283203125 -39.755859375Q61.5234375 -39.755859375 65.3759765625 -35.2001953125Q69.228515625 -30.64453125 69.228515625 -23.349609375Q69.228515625 -14.326171875 62.9736328125 -7.79296875Q56.71875 -1.259765625 46.46484375 0.732421875ZM60.234375 -21.03515625Q60.439453125 -23.5546875 60.439453125 -25.341796875Q60.439453125 -31.11328125 59.0625 -34.1162109375Q57.685546875 -37.119140625 55.224609375 -37.119140625Q53.115234375 -37.119140625 51.796875 -34.98046875Q50.478515625 -32.841796875 50.478515625 -28.76953125Q50.478515625 -24.84375 51.8115234375 -22.060546875Q53.14453125 -19.27734375 55.60546875 -19.27734375Q57.01171875 -19.27734375 58.1689453125 -19.716796875Q59.326171875 -20.15625 60.234375 -21.03515625Z" fill="black" transform="translate(34.375, 66.464)" /></svg>