<?xml version='1.0' encoding='utf-8'?>
<svg xmlns="http://www.w3.org/2000/svg" viewBox="0 0 140 100"><path d="M69.5,96.7c0.2,0,63.5-27.7,63.5-27.7c-0.9,0.2-1.5-9.9-0.5-24.5c0.9-13.2,5.9-26.3,5.9-26.3s-22.7-4.4-68.4-4.4c-43.3,0-68.4,4.4-68.4,4.4s4.6,14.8,5.9,26.3c1.4,12.9-0.5,24.6-0.5,24.4c0,0,63,27.8,62.5,27.8ZM69.5,88.2c-0.1,0-54-22.8-54-22.8s1.4-13,0-26c-1.2-11.4-2.8-15.7-2.8-15.7s14-2.9,57.3-2.9c45.7,0,57.3,2.9,57.3,2.9s-1.9,2.6-2.8,15.7c-0.9,14.7,0,26,0,26s-54.5,22.8-55,22.8Z" /><path d="M3.720703125 -22.55859375H36.298828125V-16.46484375H3.720703125Z M46.46484375 0.732421875 44.560546875 -1.611328125Q58.388671875 -6.826171875 59.82421875 -17.783203125Q58.974609375 -16.875 56.7626953125 -15.908203125Q54.55078125 -14.94140625 52.44140625 -14.94140625Q48.017578125 -14.94140625 44.9560546875 -18.28125Q41.89453125 -21.62109375 41.89453125 -26.71875Q41.89453125 -32.021484375 45.7177734375 -35.888671875Q49.541015625 -39.755859375 55.283203125 -39.755859375Q61.5234375 -39.755859375 65.3759765625 -35.2001953125Q69.228515625 -30.64453125 69.228515625 -23.349609375Q69.228515625 -14.326171875 62.9736328125 -7.79296875Q56.71875 -1.259765625 46.46484375 0.732421875ZM60.234375 -21.03515625Q60.439453125 -23.5546875 60.439453125 -25.341796875Q60.439453125 -31.11328125 59.0625 -34.1162109375Q57.685546875 -37.119140625 55.224609375 -37.119140625Q53.115234375 -37.119140625 51.796875 -34.98046875Q50.478515625 -32.841796875 50.478515625 -28.76953125Q50.478515625 -24.84375 51.8115234375 -22.060546875Q53.14453125 -19.27734375 55.60546875 -19.27734375Q57.01171875 -19.27734375 58.1689453125 -19.716796875Q59.326171875 -20.15625 60.234375 -21.03515625Z" fill="black" transform="translate(34.375, 66.464)" /></svg>