<?xml version='1.0' encoding='utf-8'?>
<svg xmlns="http://www.w3.org/2000/svg" viewBox="0 0 140 100"><path d="M10.7,30l59.3-25c0.099,0,61.225,24.687,61.993,24.997c-0.223,0.329-4.539,10.122-3.093,24.003c1.3,12.8,7.9,26.6,7.9,26.6c-0.1-0.1-26.9,3.2-66.8,3.2c-45.1,0-63.7-3.2-63.7-3.2c-0.6,0,5.3-13.1,6.4-26.6c1-12.7-2-24-2-24ZM20.6,33.6c0,0,1.8,5.6,1.2,16.7c-1.1,16.6-5.6,24.7-5.6,24.7c0-0.8,27,1.6,53.8,1.6c27.3,0,55.5-1.6,55.5-1.6c-0.1-0.8-4.7-10.3-5.5-24.3c-0.7-11.5,1.5-17.1,1.5-17.1l-51.5-20.1Z" /><path d="M3.720703125 -22.529296875H16.93359375V-35.771484375H23.056640625V-22.529296875H36.298828125V-16.435546875H23.056640625V-3.251953125H16.93359375V-16.435546875H3.720703125Z M64.951171875 -39.755859375 67.8515625 -37.646484375Q60.732421875 -34.86328125 56.806640625 -31.1865234375Q52.880859375 -27.509765625 51.5625 -20.91796875Q53.232421875 -22.5 55.0341796875 -23.291015625Q56.8359375 -24.08203125 58.76953125 -24.08203125Q63.22265625 -24.08203125 66.328125 -20.7275390625Q69.43359375 -17.373046875 69.43359375 -12.392578125Q69.43359375 -6.85546875 65.5517578125 -3.0615234375Q61.669921875 0.732421875 55.869140625 0.732421875Q49.599609375 0.732421875 45.7763671875 -4.1015625Q41.953125 -8.935546875 41.953125 -15.556640625Q41.953125 -20.361328125 44.296875 -25.107421875Q46.640625 -29.853515625 51.240234375 -33.4423828125Q55.83984375 -37.03125 64.951171875 -39.755859375ZM60.8203125 -9.9609375Q60.8203125 -13.359375 59.6337890625 -16.5380859375Q58.447265625 -19.716796875 55.166015625 -19.716796875Q52.96875 -19.716796875 51.8701171875 -18.4423828125Q50.771484375 -17.16796875 50.771484375 -14.58984375Q50.771484375 -8.291015625 52.119140625 -5.1416015625Q53.466796875 -1.9921875 56.162109375 -1.9921875Q58.212890625 -1.9921875 59.5166015625 -3.9404296875Q60.8203125 -5.888671875 60.8203125 -9.9609375Z" fill="black" transform="translate(34.375, 66.464)" /></svg>