<?xml version='1.0' encoding='utf-8'?>
<svg xmlns="http://www.w3.org/2000/svg" viewBox="0 0 140 100"><path d="M10.7,30l59.3-25c0.099,0,61.225,24.687,61.993,24.997c-0.223,0.329-4.539,10.122-3.093,24.003c1.3,12.8,7.9,26.6,7.9,26.6c-0.1-0.1-26.9,3.2-66.8,3.2c-45.1,0-63.7-3.2-63.7-3.2c-0.6,0,5.3-13.1,6.4-26.6c1-12.7-2-24-2-24ZM20.6,33.6c0,0,1.8,5.6,1.2,16.7c-1.1,16.6-5.6,24.7-5.6,24.7c0-0.8,27,1.6,53.8,1.6c27.3,0,55.5-1.6,55.5-1.6c-0.1-0.8-4.7-10.3-5.5-24.3c-0.7-11.5,1.5-17.1,1.5-17.1l-51.5-20.1Z" /><path d="M3.720703125 -22.529296875H16.93359375V-35.771484375H23.056640625V-22.529296875H36.298828125V-16.435546875H23.056640625V-3.251953125H16.93359375V-16.435546875H3.720703125Z M44.0625 -30.76171875 42.333984375 -33.046875Q45.673828125 -37.08984375 48.7939453125 -38.4228515625Q51.9140625 -39.755859375 55.517578125 -39.755859375Q60.5859375 -39.755859375 63.2666015625 -37.353515625Q65.947265625 -34.951171875 65.947265625 -31.611328125Q65.947265625 -26.77734375 59.6484375 -23.759765625Q63.837890625 -22.20703125 65.8447265625 -19.39453125Q67.8515625 -16.58203125 67.8515625 -13.65234375Q67.8515625 -8.115234375 62.9736328125 -3.6767578125Q58.095703125 0.76171875 50.771484375 0.76171875Q47.40234375 0.76171875 44.970703125 -0.234375Q42.5390625 -1.23046875 42.5390625 -2.6953125Q42.5390625 -3.369140625 43.2421875 -4.6142578125Q43.9453125 -5.859375 45.263671875 -5.859375Q46.81640625 -5.859375 49.072265625 -3.955078125Q51.2109375 -2.197265625 53.056640625 -2.197265625Q56.07421875 -2.197265625 57.83203125 -4.6142578125Q59.58984375 -7.03125 59.58984375 -10.048828125Q59.58984375 -14.12109375 56.7041015625 -16.2744140625Q53.818359375 -18.427734375 45.9375 -18.603515625L46.376953125 -21.2109375Q51.796875 -21.2109375 54.78515625 -23.3349609375Q57.7734375 -25.458984375 57.7734375 -28.76953125Q57.7734375 -31.494140625 55.8544921875 -33.017578125Q53.935546875 -34.541015625 51.4453125 -34.541015625Q48.22265625 -34.541015625 44.0625 -30.76171875Z" fill="black" transform="translate(34.375, 66.464)" /></svg>