<?xml version='1.0' encoding='utf-8'?>
<svg xmlns="http://www.w3.org/2000/svg" viewBox="0 0 140 100"><path d="M69.5,96.7c0.2,0,63.5-27.7,63.5-27.7c-0.9,0.2-1.5-9.9-0.5-24.5c0.9-13.2,5.9-26.3,5.9-26.3s-22.7-4.4-68.4-4.4c-43.3,0-68.4,4.4-68.4,4.4s4.6,14.8,5.9,26.3c1.4,12.9-0.5,24.6-0.5,24.4c0,0,63,27.8,62.5,27.8ZM69.5,88.2c-0.1,0-54-22.8-54-22.8s1.4-13,0-26c-1.2-11.4-2.8-15.7-2.8-15.7s14-2.9,57.3-2.9c45.7,0,57.3,2.9,57.3,2.9s-1.9,2.6-2.8,15.7c-0.9,14.7,0,26,0,26s-54.5,22.8-55,22.8Z" /><path d="M3.720703125 -22.55859375H36.298828125V-16.46484375H3.720703125Z M59.765625 -39.755859375V-10.517578125Q59.765625 -6.943359375 60.0146484375 -5.712890625Q60.263671875 -4.482421875 61.435546875 -3.6328125Q62.607421875 -2.783203125 64.892578125 -2.783203125H65.9765625V0.0H45.703125V-2.783203125H46.34765625Q49.5703125 -2.783203125 50.7275390625 -4.0869140625Q51.884765625 -5.390625 51.884765625 -9.345703125V-25.341796875Q51.884765625 -28.828125 50.859375 -30.146484375Q49.833984375 -31.46484375 46.728515625 -31.46484375H45.703125V-34.130859375Q47.98828125 -34.775390625 51.328125 -36.5478515625Q54.66796875 -38.3203125 56.1328125 -39.755859375Z" fill="black" transform="translate(34.375, 66.464)" /></svg>