<?xml version='1.0' encoding='utf-8'?>
<svg xmlns="http://www.w3.org/2000/svg" viewBox="0 0 140 100"><path d="M69.5,96.7c0.2,0,63.5-27.7,63.5-27.7c-0.9,0.2-1.5-9.9-0.5-24.5c0.9-13.2,5.9-26.3,5.9-26.3s-22.7-4.4-68.4-4.4c-43.3,0-68.4,4.4-68.4,4.4s4.6,14.8,5.9,26.3c1.4,12.9-0.5,24.6-0.5,24.4c0,0,63,27.8,62.5,27.8ZM69.5,88.2c-0.1,0-54-22.8-54-22.8s1.4-13,0-26c-1.2-11.4-2.8-15.7-2.8-15.7s14-2.9,57.3-2.9c45.7,0,57.3,2.9,57.3,2.9s-1.9,2.6-2.8,15.7c-0.9,14.7,0,26,0,26s-54.5,22.8-55,22.8Z" /><path d="M3.720703125 -22.55859375H36.298828125V-16.46484375H3.720703125Z M44.0625 -30.76171875 42.333984375 -33.046875Q45.673828125 -37.08984375 48.7939453125 -38.4228515625Q51.9140625 -39.755859375 55.517578125 -39.755859375Q60.5859375 -39.755859375 63.2666015625 -37.353515625Q65.947265625 -34.951171875 65.947265625 -31.611328125Q65.947265625 -26.77734375 59.6484375 -23.759765625Q63.837890625 -22.20703125 65.8447265625 -19.39453125Q67.8515625 -16.58203125 67.8515625 -13.65234375Q67.8515625 -8.115234375 62.9736328125 -3.6767578125Q58.095703125 0.76171875 50.771484375 0.76171875Q47.40234375 0.76171875 44.970703125 -0.234375Q42.5390625 -1.23046875 42.5390625 -2.6953125Q42.5390625 -3.369140625 43.2421875 -4.6142578125Q43.9453125 -5.859375 45.263671875 -5.859375Q46.81640625 -5.859375 49.072265625 -3.955078125Q51.2109375 -2.197265625 53.056640625 -2.197265625Q56.07421875 -2.197265625 57.83203125 -4.6142578125Q59.58984375 -7.03125 59.58984375 -10.048828125Q59.58984375 -14.12109375 56.7041015625 -16.2744140625Q53.818359375 -18.427734375 45.9375 -18.603515625L46.376953125 -21.2109375Q51.796875 -21.2109375 54.78515625 -23.3349609375Q57.7734375 -25.458984375 57.7734375 -28.76953125Q57.7734375 -31.494140625 55.8544921875 -33.017578125Q53.935546875 -34.541015625 51.4453125 -34.541015625Q48.22265625 -34.541015625 44.0625 -30.76171875Z" fill="black" transform="translate(34.375, 66.464)" /></svg>