<?xml version='1.0' encoding='utf-8'?>
<svg xmlns="http://www.w3.org/2000/svg" viewBox="0 0 140 100"><path d="M10.7,30l59.3-25c0.099,0,61.225,24.687,61.993,24.997c-0.223,0.329-4.539,10.122-3.093,24.003c1.3,12.8,7.9,26.6,7.9,26.6c-0.1-0.1-26.9,3.2-66.8,3.2c-45.1,0-63.7-3.2-63.7-3.2c-0.6,0,5.3-13.1,6.4-26.6c1-12.7-2-24-2-24ZM20.6,33.6c0,0,1.8,5.6,1.2,16.7c-1.1,16.6-5.6,24.7-5.6,24.7c0-0.8,27,1.6,53.8,1.6c27.3,0,55.5-1.6,55.5-1.6c-0.1-0.8-4.7-10.3-5.5-24.3c-0.7-11.5,1.5-17.1,1.5-17.1l-51.5-20.1Z" /><path d="M3.720703125 -22.529296875H16.93359375V-35.771484375H23.056640625V-22.529296875H36.298828125V-16.435546875H23.056640625V-3.251953125H16.93359375V-16.435546875H3.720703125Z M57.158203125 -2.783203125V0.0H40.927734375V-2.783203125Q44.82421875 -2.783203125 46.0107421875 -4.8486328125Q47.197265625 -6.9140625 47.197265625 -12.3046875L46.904296875 -35.009765625Q43.623046875 -37.79296875 40.751953125 -38.14453125V-40.927734375H55.546875L78.1640625 -15.322265625L77.8125 -26.8359375Q77.548828125 -34.3359375 76.318359375 -36.1669921875Q75.087890625 -37.998046875 70.927734375 -38.14453125V-40.927734375H86.42578125V-38.14453125Q83.90625 -37.763671875 82.9248046875 -37.1923828125Q81.943359375 -36.62109375 81.4453125 -35.21484375Q80.947265625 -33.80859375 80.947265625 -29.58984375L81.298828125 -10.546875Q81.328125 -7.998046875 81.943359375 -4.98046875Q82.412109375 -2.666015625 82.412109375 -1.171875Q82.412109375 -0.29296875 82.265625 0.5859375H78.1640625L49.658203125 -31.787109375L50.09765625 -13.65234375Q50.302734375 -6.005859375 52.177734375 -4.39453125Q54.052734375 -2.783203125 57.158203125 -2.783203125Z" fill="black" transform="translate(26.259765625, 66.464)" /></svg>