<?xml version='1.0' encoding='utf-8'?>
<svg xmlns="http://www.w3.org/2000/svg" viewBox="0 0 140 100"><path d="M69.5,96.7c0.2,0,63.5-27.7,63.5-27.7c-0.9,0.2-1.5-9.9-0.5-24.5c0.9-13.2,5.9-26.3,5.9-26.3s-22.7-4.4-68.4-4.4c-43.3,0-68.4,4.4-68.4,4.4s4.6,14.8,5.9,26.3c1.4,12.9-0.5,24.6-0.5,24.4c0,0,63,27.8,62.5,27.8ZM69.5,88.2c-0.1,0-54-22.8-54-22.8s1.4-13,0-26c-1.2-11.4-2.8-15.7-2.8-15.7s14-2.9,57.3-2.9c45.7,0,57.3,2.9,57.3,2.9s-1.9,2.6-2.8,15.7c-0.9,14.7,0,26,0,26s-54.5,22.8-55,22.8Z" /><path d="M3.720703125 -22.55859375H36.298828125V-16.46484375H3.720703125Z M65.859375 -40.72265625 67.998046875 -39.66796875 65.302734375 -34.365234375Q64.74609375 -33.22265625 64.423828125 -33.046875Q64.1015625 -32.87109375 61.11328125 -32.87109375H52.32421875L50.15625 -27.802734375Q67.177734375 -23.935546875 67.177734375 -13.41796875Q67.177734375 -9.19921875 64.6728515625 -5.91796875Q62.16796875 -2.63671875 57.7880859375 -0.9521484375Q53.408203125 0.732421875 49.1015625 0.732421875Q43.505859375 0.732421875 43.505859375 -1.69921875Q43.505859375 -2.900390625 44.1943359375 -4.1015625Q44.8828125 -5.302734375 45.908203125 -5.302734375Q46.640625 -5.302734375 48.046875 -4.775390625Q51.85546875 -3.33984375 54.90234375 -3.33984375Q57.83203125 -3.33984375 59.4287109375 -5.0244140625Q61.025390625 -6.708984375 61.025390625 -9.169921875Q61.025390625 -13.88671875 55.3564453125 -16.875Q49.6875 -19.86328125 44.6484375 -21.064453125L52.32421875 -39.0234375H64.5703125Z" fill="black" transform="translate(34.375, 66.464)" /></svg>