<?xml version='1.0' encoding='utf-8'?>
<svg xmlns="http://www.w3.org/2000/svg" viewBox="0 0 140 100"><path d="M69.5,96.7c0.2,0,63.5-27.7,63.5-27.7c-0.9,0.2-1.5-9.9-0.5-24.5c0.9-13.2,5.9-26.3,5.9-26.3s-22.7-4.4-68.4-4.4c-43.3,0-68.4,4.4-68.4,4.4s4.6,14.8,5.9,26.3c1.4,12.9-0.5,24.6-0.5,24.4c0,0,63,27.8,62.5,27.8ZM69.5,88.2c-0.1,0-54-22.8-54-22.8s1.4-13,0-26c-1.2-11.4-2.8-15.7-2.8-15.7s14-2.9,57.3-2.9c45.7,0,57.3,2.9,57.3,2.9s-1.9,2.6-2.8,15.7c-0.9,14.7,0,26,0,26s-54.5,22.8-55,22.8Z" /><path d="M3.720703125 -22.55859375H36.298828125V-16.46484375H3.720703125Z M86.54296875 -2.783203125V0.0H63.076171875V-2.783203125Q67.8515625 -2.783203125 67.8515625 -4.98046875Q67.8515625 -6.650390625 65.244140625 -9.873046875L60.46875 -15.76171875L54.78515625 -9.169921875Q53.291015625 -7.412109375 53.291015625 -5.830078125Q53.291015625 -4.482421875 54.4921875 -3.6474609375Q55.693359375 -2.8125 57.333984375 -2.783203125V0.0H40.95703125V-2.783203125Q42.71484375 -2.841796875 44.4140625 -3.5595703125Q46.11328125 -4.27734375 47.0361328125 -5.1123046875Q47.958984375 -5.947265625 50.947265625 -9.43359375L58.65234375 -18.193359375L46.34765625 -34.365234375Q44.6484375 -36.591796875 43.4619140625 -37.3095703125Q42.275390625 -38.02734375 40.1953125 -38.14453125V-40.927734375H63.3984375V-38.14453125Q59.00390625 -38.0859375 59.00390625 -35.947265625Q59.00390625 -34.51171875 61.46484375 -31.259765625L65.33203125 -26.1328125L70.60546875 -32.28515625Q72.3046875 -34.27734375 72.3046875 -35.68359375Q72.3046875 -37.998046875 68.818359375 -38.14453125V-40.927734375H83.5546875V-38.14453125Q79.62890625 -37.79296875 75.322265625 -32.900390625L67.294921875 -23.7890625L78.69140625 -8.818359375Q81.9140625 -4.599609375 83.0126953125 -3.69140625Q84.111328125 -2.783203125 86.54296875 -2.783203125Z" fill="black" transform="translate(26.5673828125, 66.464)" /></svg>