<?xml version='1.0' encoding='utf-8'?>
<svg xmlns="http://www.w3.org/2000/svg" viewBox="0 0 140 100"><path d="M10.7,30l59.3-25c0.099,0,61.225,24.687,61.993,24.997c-0.223,0.329-4.539,10.122-3.093,24.003c1.3,12.8,7.9,26.6,7.9,26.6c-0.1-0.1-26.9,3.2-66.8,3.2c-45.1,0-63.7-3.2-63.7-3.2c-0.6,0,5.3-13.1,6.4-26.6c1-12.7-2-24-2-24ZM20.6,33.6c0,0,1.8,5.6,1.2,16.7c-1.1,16.6-5.6,24.7-5.6,24.7c0-0.8,27,1.6,53.8,1.6c27.3,0,55.5-1.6,55.5-1.6c-0.1-0.8-4.7-10.3-5.5-24.3c-0.7-11.5,1.5-17.1,1.5-17.1l-51.5-20.1Z" /><path d="M3.720703125 -22.529296875H16.93359375V-35.771484375H23.056640625V-22.529296875H36.298828125V-16.435546875H23.056640625V-3.251953125H16.93359375V-16.435546875H3.720703125Z M68.4375 -10.60546875 65.009765625 0.0H41.923828125V-2.6953125Q48.310546875 -8.3203125 53.4228515625 -15.146484375Q58.53515625 -21.97265625 58.53515625 -26.630859375Q58.53515625 -29.970703125 56.2646484375 -31.9921875Q53.994140625 -34.013671875 50.888671875 -34.013671875Q47.16796875 -34.013671875 44.208984375 -31.0546875L42.59765625 -32.87109375Q48.28125 -39.755859375 55.48828125 -39.755859375Q60.029296875 -39.755859375 63.134765625 -37.001953125Q66.240234375 -34.248046875 66.240234375 -30.234375Q66.240234375 -25.60546875 63.2666015625 -21.3134765625Q60.29296875 -17.021484375 49.86328125 -7.470703125H59.94140625Q62.63671875 -7.470703125 63.8232421875 -8.0419921875Q65.009765625 -8.61328125 65.771484375 -10.60546875Z" fill="black" transform="translate(34.375, 66.464)" /></svg>