<?xml version='1.0' encoding='utf-8'?>
<svg xmlns="http://www.w3.org/2000/svg" viewBox="0 0 140 100"><path d="M69.5,96.7c0.2,0,63.5-27.7,63.5-27.7c-0.9,0.2-1.5-9.9-0.5-24.5c0.9-13.2,5.9-26.3,5.9-26.3s-22.7-4.4-68.4-4.4c-43.3,0-68.4,4.4-68.4,4.4s4.6,14.8,5.9,26.3c1.4,12.9-0.5,24.6-0.5,24.4c0,0,63,27.8,62.5,27.8ZM69.5,88.2c-0.1,0-54-22.8-54-22.8s1.4-13,0-26c-1.2-11.4-2.8-15.7-2.8-15.7s14-2.9,57.3-2.9c45.7,0,57.3,2.9,57.3,2.9s-1.9,2.6-2.8,15.7c-0.9,14.7,0,26,0,26s-54.5,22.8-55,22.8Z" /><path d="M3.720703125 -22.55859375H36.298828125V-16.46484375H3.720703125Z M68.4375 -10.60546875 65.009765625 0.0H41.923828125V-2.6953125Q48.310546875 -8.3203125 53.4228515625 -15.146484375Q58.53515625 -21.97265625 58.53515625 -26.630859375Q58.53515625 -29.970703125 56.2646484375 -31.9921875Q53.994140625 -34.013671875 50.888671875 -34.013671875Q47.16796875 -34.013671875 44.208984375 -31.0546875L42.59765625 -32.87109375Q48.28125 -39.755859375 55.48828125 -39.755859375Q60.029296875 -39.755859375 63.134765625 -37.001953125Q66.240234375 -34.248046875 66.240234375 -30.234375Q66.240234375 -25.60546875 63.2666015625 -21.3134765625Q60.29296875 -17.021484375 49.86328125 -7.470703125H59.94140625Q62.63671875 -7.470703125 63.8232421875 -8.0419921875Q65.009765625 -8.61328125 65.771484375 -10.60546875Z" fill="black" transform="translate(34.375, 66.464)" /></svg>