<?xml version='1.0' encoding='utf-8'?>
<svg xmlns="http://www.w3.org/2000/svg" viewBox="0 0 140 100"><path d="M10.7,30l59.3-25c0.099,0,61.225,24.687,61.993,24.997c-0.223,0.329-4.539,10.122-3.093,24.003c1.3,12.8,7.9,26.6,7.9,26.6c-0.1-0.1-26.9,3.2-66.8,3.2c-45.1,0-63.7-3.2-63.7-3.2c-0.6,0,5.3-13.1,6.4-26.6c1-12.7-2-24-2-24ZM20.6,33.6c0,0,1.8,5.6,1.2,16.7c-1.1,16.6-5.6,24.7-5.6,24.7c0-0.8,27,1.6,53.8,1.6c27.3,0,55.5-1.6,55.5-1.6c-0.1-0.8-4.7-10.3-5.5-24.3c-0.7-11.5,1.5-17.1,1.5-17.1l-51.5-20.1Z" /><path d="M3.720703125 -22.529296875H16.93359375V-35.771484375H23.056640625V-22.529296875H36.298828125V-16.435546875H23.056640625V-3.251953125H16.93359375V-16.435546875H3.720703125Z M50.56640625 -18.3984375Q47.4609375 -20.771484375 45.380859375 -23.4228515625Q43.30078125 -26.07421875 43.30078125 -29.208984375Q43.30078125 -33.779296875 47.2265625 -36.767578125Q51.15234375 -39.755859375 56.3671875 -39.755859375Q61.11328125 -39.755859375 64.3505859375 -37.2509765625Q67.587890625 -34.74609375 67.587890625 -31.259765625Q67.587890625 -26.396484375 60.3515625 -22.08984375Q64.21875 -19.833984375 66.73828125 -16.5380859375Q69.2578125 -13.2421875 69.2578125 -9.873046875Q69.2578125 -6.826171875 67.353515625 -4.3212890625Q65.44921875 -1.81640625 62.2412109375 -0.52734375Q59.033203125 0.76171875 55.224609375 0.76171875Q49.423828125 0.76171875 46.1279296875 -1.9921875Q42.83203125 -4.74609375 42.83203125 -8.5546875Q42.83203125 -11.19140625 44.560546875 -13.3740234375Q46.2890625 -15.556640625 50.56640625 -18.3984375ZM57.919921875 -23.876953125Q62.2265625 -26.103515625 62.2265625 -30.3515625Q62.2265625 -33.369140625 60.4541015625 -35.185546875Q58.681640625 -37.001953125 56.337890625 -37.001953125Q54.2578125 -37.001953125 52.705078125 -35.56640625Q51.15234375 -34.130859375 51.15234375 -31.93359375Q51.15234375 -30.0 52.67578125 -28.212890625Q54.19921875 -26.42578125 57.919921875 -23.876953125ZM52.822265625 -16.81640625Q48.310546875 -13.271484375 48.310546875 -8.583984375Q48.310546875 -5.625 49.892578125 -3.7939453125Q51.474609375 -1.962890625 54.697265625 -1.962890625Q57.3046875 -1.962890625 58.9599609375 -3.5595703125Q60.615234375 -5.15625 60.615234375 -7.55859375Q60.615234375 -9.814453125 59.0185546875 -11.7041015625Q57.421875 -13.59375 52.822265625 -16.81640625Z" fill="black" transform="translate(34.375, 66.464)" /></svg>