<?xml version='1.0' encoding='utf-8'?>
<svg xmlns="http://www.w3.org/2000/svg" viewBox="0 0 140 100"><path d="M69.5,96.7c0.2,0,63.5-27.7,63.5-27.7c-0.9,0.2-1.5-9.9-0.5-24.5c0.9-13.2,5.9-26.3,5.9-26.3s-22.7-4.4-68.4-4.4c-43.3,0-68.4,4.4-68.4,4.4s4.6,14.8,5.9,26.3c1.4,12.9-0.5,24.6-0.5,24.4c0,0,63,27.8,62.5,27.8ZM69.5,88.2c-0.1,0-54-22.8-54-22.8s1.4-13,0-26c-1.2-11.4-2.8-15.7-2.8-15.7s14-2.9,57.3-2.9c45.7,0,57.3,2.9,57.3,2.9s-1.9,2.6-2.8,15.7c-0.9,14.7,0,26,0,26s-54.5,22.8-55,22.8Z" /><path d="M3.720703125 -22.55859375H36.298828125V-16.46484375H3.720703125Z M64.951171875 -39.755859375 67.8515625 -37.646484375Q60.732421875 -34.86328125 56.806640625 -31.1865234375Q52.880859375 -27.509765625 51.5625 -20.91796875Q53.232421875 -22.5 55.0341796875 -23.291015625Q56.8359375 -24.08203125 58.76953125 -24.08203125Q63.22265625 -24.08203125 66.328125 -20.7275390625Q69.43359375 -17.373046875 69.43359375 -12.392578125Q69.43359375 -6.85546875 65.5517578125 -3.0615234375Q61.669921875 0.732421875 55.869140625 0.732421875Q49.599609375 0.732421875 45.7763671875 -4.1015625Q41.953125 -8.935546875 41.953125 -15.556640625Q41.953125 -20.361328125 44.296875 -25.107421875Q46.640625 -29.853515625 51.240234375 -33.4423828125Q55.83984375 -37.03125 64.951171875 -39.755859375ZM60.8203125 -9.9609375Q60.8203125 -13.359375 59.6337890625 -16.5380859375Q58.447265625 -19.716796875 55.166015625 -19.716796875Q52.96875 -19.716796875 51.8701171875 -18.4423828125Q50.771484375 -17.16796875 50.771484375 -14.58984375Q50.771484375 -8.291015625 52.119140625 -5.1416015625Q53.466796875 -1.9921875 56.162109375 -1.9921875Q58.212890625 -1.9921875 59.5166015625 -3.9404296875Q60.8203125 -5.888671875 60.8203125 -9.9609375Z" fill="black" transform="translate(34.375, 66.464)" /></svg>