<?xml version='1.0' encoding='utf-8'?>
<svg xmlns="http://www.w3.org/2000/svg" viewBox="0 0 140 100"><path d="M69.5,96.7c0.2,0,63.5-27.7,63.5-27.7c-0.9,0.2-1.5-9.9-0.5-24.5c0.9-13.2,5.9-26.3,5.9-26.3s-22.7-4.4-68.4-4.4c-43.3,0-68.4,4.4-68.4,4.4s4.6,14.8,5.9,26.3c1.4,12.9-0.5,24.6-0.5,24.4c0,0,63,27.8,62.5,27.8ZM69.5,88.2c-0.1,0-54-22.8-54-22.8s1.4-13,0-26c-1.2-11.4-2.8-15.7-2.8-15.7s14-2.9,57.3-2.9c45.7,0,57.3,2.9,57.3,2.9s-1.9,2.6-2.8,15.7c-0.9,14.7,0,26,0,26s-54.5,22.8-55,22.8Z" /><path d="M3.720703125 -22.55859375H36.298828125V-16.46484375H3.720703125Z M59.765625 -39.755859375V-10.517578125Q59.765625 -6.943359375 60.0146484375 -5.712890625Q60.263671875 -4.482421875 61.435546875 -3.6328125Q62.607421875 -2.783203125 64.892578125 -2.783203125H65.9765625V0.0H45.703125V-2.783203125H46.34765625Q49.5703125 -2.783203125 50.7275390625 -4.0869140625Q51.884765625 -5.390625 51.884765625 -9.345703125V-25.341796875Q51.884765625 -28.828125 50.859375 -30.146484375Q49.833984375 -31.46484375 46.728515625 -31.46484375H45.703125V-34.130859375Q47.98828125 -34.775390625 51.328125 -36.5478515625Q54.66796875 -38.3203125 56.1328125 -39.755859375Z M100.4296875 -20.21484375Q100.4296875 -11.044921875 96.4306640625 -5.15625Q92.431640625 0.732421875 86.77734375 0.732421875Q83.0859375 0.732421875 79.9072265625 -2.0068359375Q76.728515625 -4.74609375 74.9267578125 -9.7998046875Q73.125 -14.853515625 73.125 -19.8046875Q73.125 -27.71484375 77.0361328125 -33.75Q80.947265625 -39.78515625 86.71875 -39.78515625Q90.64453125 -39.78515625 94.1015625 -36.6650390625Q97.55859375 -33.544921875 98.994140625 -28.59375Q100.4296875 -23.642578125 100.4296875 -20.21484375ZM91.728515625 -20.2734375Q91.728515625 -30.46875 90.5712890625 -33.7646484375Q89.4140625 -37.060546875 86.748046875 -37.060546875Q85.546875 -37.060546875 84.4775390625 -36.123046875Q83.408203125 -35.185546875 82.67578125 -32.841796875Q81.943359375 -30.498046875 81.8701171875 -27.3046875Q81.796875 -24.111328125 81.796875 -15.732421875Q81.796875 -7.353515625 83.2177734375 -4.6875Q84.638671875 -2.021484375 86.8359375 -2.021484375Q88.4765625 -2.021484375 89.8388671875 -3.779296875Q91.201171875 -5.537109375 91.46484375 -8.994140625Q91.728515625 -12.451171875 91.728515625 -20.2734375Z" fill="black" transform="translate(18.7451171875, 66.464)" /></svg>