<?xml version='1.0' encoding='utf-8'?>
<svg xmlns="http://www.w3.org/2000/svg" viewBox="0 0 140 100"><path d="M70,84.4c32.9,0,68.3-5,68.3-5s-12.4-18.4-12.4-36c0-17.2,13.3-32.8,13.3-32.8s-36.3-4.9-69.2-4.9s-68.7,4.9-68.7,4.9s11.9,15.5,11.9,33c0,17.2-12.2,35.8-12.2,35.8s36.1,5,69,5ZM70,76.2c-29.5,0-56.1-2.8-56.1-2.8c0,0.1,7.6-12.4,7.6-28.8c0-16.5-7.6-27.3-7.6-27.3s26.5-3.7,56.1-3.7s55.3,3.7,55.3,3.7c1.2,0-7.4,11.1-7.4,27.3c0,16.8,7.6,28.9,7.6,28.9s-25.8,2.7-55.5,2.7Z" /><path d="M29.1796875 -20.21484375Q29.1796875 -11.044921875 25.1806640625 -5.15625Q21.181640625 0.732421875 15.52734375 0.732421875Q11.8359375 0.732421875 8.6572265625 -2.0068359375Q5.478515625 -4.74609375 3.6767578125 -9.7998046875Q1.875 -14.853515625 1.875 -19.8046875Q1.875 -27.71484375 5.7861328125 -33.75Q9.697265625 -39.78515625 15.46875 -39.78515625Q19.39453125 -39.78515625 22.8515625 -36.6650390625Q26.30859375 -33.544921875 27.744140625 -28.59375Q29.1796875 -23.642578125 29.1796875 -20.21484375ZM20.478515625 -20.2734375Q20.478515625 -30.46875 19.3212890625 -33.7646484375Q18.1640625 -37.060546875 15.498046875 -37.060546875Q14.296875 -37.060546875 13.2275390625 -36.123046875Q12.158203125 -35.185546875 11.42578125 -32.841796875Q10.693359375 -30.498046875 10.6201171875 -27.3046875Q10.546875 -24.111328125 10.546875 -15.732421875Q10.546875 -7.353515625 11.9677734375 -4.6875Q13.388671875 -2.021484375 15.5859375 -2.021484375Q17.2265625 -2.021484375 18.5888671875 -3.779296875Q19.951171875 -5.537109375 20.21484375 -8.994140625Q20.478515625 -12.451171875 20.478515625 -20.2734375Z" fill="black" transform="translate(54.3701171875, 66.464)" /></svg>