<?xml version='1.0' encoding='utf-8'?>
<svg xmlns="http://www.w3.org/2000/svg" viewBox="0 0 140 100"><path d="M69.5,96.7c0.2,0,63.5-27.7,63.5-27.7c-0.9,0.2-1.5-9.9-0.5-24.5c0.9-13.2,5.9-26.3,5.9-26.3s-22.7-4.4-68.4-4.4c-43.3,0-68.4,4.4-68.4,4.4s4.6,14.8,5.9,26.3c1.4,12.9-0.5,24.6-0.5,24.4c0,0,63,27.8,62.5,27.8ZM69.5,88.2c-0.1,0-54-22.8-54-22.8s1.4-13,0-26c-1.2-11.4-2.8-15.7-2.8-15.7s14-2.9,57.3-2.9c45.7,0,57.3,2.9,57.3,2.9s-1.9,2.6-2.8,15.7c-0.9,14.7,0,26,0,26s-54.5,22.8-55,22.8Z" /><path d="M3.720703125 -22.55859375H36.298828125V-16.46484375H3.720703125Z M59.765625 -39.755859375V-10.517578125Q59.765625 -6.943359375 60.0146484375 -5.712890625Q60.263671875 -4.482421875 61.435546875 -3.6328125Q62.607421875 -2.783203125 64.892578125 -2.783203125H65.9765625V0.0H45.703125V-2.783203125H46.34765625Q49.5703125 -2.783203125 50.7275390625 -4.0869140625Q51.884765625 -5.390625 51.884765625 -9.345703125V-25.341796875Q51.884765625 -28.828125 50.859375 -30.146484375Q49.833984375 -31.46484375 46.728515625 -31.46484375H45.703125V-34.130859375Q47.98828125 -34.775390625 51.328125 -36.5478515625Q54.66796875 -38.3203125 56.1328125 -39.755859375Z M75.322265625 -30.76171875 73.59375 -33.046875Q76.93359375 -37.08984375 80.0537109375 -38.4228515625Q83.173828125 -39.755859375 86.77734375 -39.755859375Q91.845703125 -39.755859375 94.5263671875 -37.353515625Q97.20703125 -34.951171875 97.20703125 -31.611328125Q97.20703125 -26.77734375 90.908203125 -23.759765625Q95.09765625 -22.20703125 97.1044921875 -19.39453125Q99.111328125 -16.58203125 99.111328125 -13.65234375Q99.111328125 -8.115234375 94.2333984375 -3.6767578125Q89.35546875 0.76171875 82.03125 0.76171875Q78.662109375 0.76171875 76.23046875 -0.234375Q73.798828125 -1.23046875 73.798828125 -2.6953125Q73.798828125 -3.369140625 74.501953125 -4.6142578125Q75.205078125 -5.859375 76.5234375 -5.859375Q78.076171875 -5.859375 80.33203125 -3.955078125Q82.470703125 -2.197265625 84.31640625 -2.197265625Q87.333984375 -2.197265625 89.091796875 -4.6142578125Q90.849609375 -7.03125 90.849609375 -10.048828125Q90.849609375 -14.12109375 87.9638671875 -16.2744140625Q85.078125 -18.427734375 77.197265625 -18.603515625L77.63671875 -21.2109375Q83.056640625 -21.2109375 86.044921875 -23.3349609375Q89.033203125 -25.458984375 89.033203125 -28.76953125Q89.033203125 -31.494140625 87.1142578125 -33.017578125Q85.1953125 -34.541015625 82.705078125 -34.541015625Q79.482421875 -34.541015625 75.322265625 -30.76171875Z" fill="black" transform="translate(18.7451171875, 66.464)" /></svg>