<?xml version='1.0' encoding='utf-8'?>
<svg xmlns="http://www.w3.org/2000/svg" viewBox="0 0 140 100"><path d="M69.5,96.7c0.2,0,63.5-27.7,63.5-27.7c-0.9,0.2-1.5-9.9-0.5-24.5c0.9-13.2,5.9-26.3,5.9-26.3s-22.7-4.4-68.4-4.4c-43.3,0-68.4,4.4-68.4,4.4s4.6,14.8,5.9,26.3c1.4,12.9-0.5,24.6-0.5,24.4c0,0,63,27.8,62.5,27.8ZM69.5,88.2c-0.1,0-54-22.8-54-22.8s1.4-13,0-26c-1.2-11.4-2.8-15.7-2.8-15.7s14-2.9,57.3-2.9c45.7,0,57.3,2.9,57.3,2.9s-1.9,2.6-2.8,15.7c-0.9,14.7,0,26,0,26s-54.5,22.8-55,22.8Z" /><path d="M3.720703125 -22.55859375H36.298828125V-16.46484375H3.720703125Z M59.765625 -39.755859375V-10.517578125Q59.765625 -6.943359375 60.0146484375 -5.712890625Q60.263671875 -4.482421875 61.435546875 -3.6328125Q62.607421875 -2.783203125 64.892578125 -2.783203125H65.9765625V0.0H45.703125V-2.783203125H46.34765625Q49.5703125 -2.783203125 50.7275390625 -4.0869140625Q51.884765625 -5.390625 51.884765625 -9.345703125V-25.341796875Q51.884765625 -28.828125 50.859375 -30.146484375Q49.833984375 -31.46484375 46.728515625 -31.46484375H45.703125V-34.130859375Q47.98828125 -34.775390625 51.328125 -36.5478515625Q54.66796875 -38.3203125 56.1328125 -39.755859375Z M97.119140625 -40.72265625 99.2578125 -39.66796875 96.5625 -34.365234375Q96.005859375 -33.22265625 95.68359375 -33.046875Q95.361328125 -32.87109375 92.373046875 -32.87109375H83.583984375L81.416015625 -27.802734375Q98.4375 -23.935546875 98.4375 -13.41796875Q98.4375 -9.19921875 95.9326171875 -5.91796875Q93.427734375 -2.63671875 89.0478515625 -0.9521484375Q84.66796875 0.732421875 80.361328125 0.732421875Q74.765625 0.732421875 74.765625 -1.69921875Q74.765625 -2.900390625 75.4541015625 -4.1015625Q76.142578125 -5.302734375 77.16796875 -5.302734375Q77.900390625 -5.302734375 79.306640625 -4.775390625Q83.115234375 -3.33984375 86.162109375 -3.33984375Q89.091796875 -3.33984375 90.6884765625 -5.0244140625Q92.28515625 -6.708984375 92.28515625 -9.169921875Q92.28515625 -13.88671875 86.6162109375 -16.875Q80.947265625 -19.86328125 75.908203125 -21.064453125L83.583984375 -39.0234375H95.830078125Z" fill="black" transform="translate(18.7451171875, 66.464)" /></svg>